<svg width="32" height="32" viewBox="0 0 32 32" fill="none" xmlns="http://www.w3.org/2000/svg">
<path opacity="0.62" d="M11.1456 25.3074L15.1821 20.3322C15.6037 19.8125 16.3968 19.8125 16.8184 20.3322L20.8549 25.3074C21.1688 25.6943 21.1688 26.2481 20.8549 26.635L16.8184 31.6102C16.3968 32.1299 15.6037 32.1299 15.1821 31.6102L11.1456 26.635C10.8317 26.2481 10.8317 25.6943 11.1456 25.3074Z" fill="#1BA5F8"/>
<path d="M17.4542 13.1411L21.4907 8.1659C21.9123 7.6462 22.7053 7.6462 23.127 8.1659L27.1635 13.1411C27.4774 13.528 27.4774 14.0819 27.1635 14.4687L23.127 19.444C22.7053 19.9637 21.9123 19.9637 21.4907 19.444L17.4542 14.4687C17.1403 14.0819 17.1403 13.528 17.4542 13.1411Z" fill="#1BA5F8"/>
<path d="M4.84087 13.1411L8.8774 8.1659C9.29904 7.6462 10.0921 7.6462 10.5137 8.1659L14.5502 13.1411C14.8641 13.528 14.8641 14.0819 14.5502 14.4687L10.5137 19.444C10.0921 19.9637 9.29904 19.9637 8.8774 19.444L4.84087 14.4687C4.527 14.0819 4.527 13.528 4.84087 13.1411Z" fill="#1BA5F8"/>
<path d="M11.1456 5.36503L15.1821 0.389774C15.6037 -0.129925 16.3968 -0.129925 16.8184 0.389774L20.8549 5.36503C21.1688 5.75189 21.1688 6.30573 20.8549 6.6926L16.8184 11.6678C16.3968 12.1875 15.6037 12.1875 15.1821 11.6678L11.1456 6.6926C10.8317 6.30573 10.8317 5.75189 11.1456 5.36503Z" fill="#1BA5F8"/>
</svg>
