<svg width="145" height="96" viewBox="0 0 145 96" fill="none" xmlns="http://www.w3.org/2000/svg">
<g opacity="0.2" clip-path="url(#clip0_447_14333)">
<path opacity="0.2" d="M98.1934 117.712L119.693 129.248C121.938 130.453 124.694 129.278 125.379 126.823L131.937 103.322C132.447 101.495 131.615 99.5447 129.943 98.6477L108.444 87.112C106.198 85.9071 103.442 87.0824 102.757 89.5372L96.1999 113.038C95.69 114.865 96.5217 116.815 98.1934 117.712Z" fill="url(#paint0_linear_447_14333)"/>
<path opacity="0.4" d="M96.7052 118.25L119.401 130.241C121.771 131.494 124.694 130.248 125.431 127.67L132.488 102.99C133.037 101.071 132.166 99.0297 130.401 98.0972L107.706 86.1056C105.335 84.853 102.413 86.0993 101.675 88.6773L94.6187 113.357C94.07 115.276 94.9404 117.317 96.7052 118.25Z" fill="url(#paint1_linear_447_14333)"/>
<g opacity="0.62" filter="url(#filter0_d_447_14333)">
<path d="M96.7052 118.25L119.401 130.241C121.771 131.494 124.694 130.248 125.431 127.67L132.488 102.99C133.037 101.071 132.166 99.0297 130.401 98.0972L107.706 86.1056C105.335 84.853 102.413 86.0993 101.675 88.6773L94.6187 113.357C94.07 115.276 94.9404 117.317 96.7052 118.25Z" stroke="url(#paint2_linear_447_14333)" stroke-width="0.86" shape-rendering="crispEdges"/>
</g>
<path opacity="0.4" d="M101.903 64.1737L124.599 76.1653C126.97 77.4179 129.892 76.1716 130.629 73.5936L137.686 48.9138C138.235 46.9948 137.364 44.9537 135.599 44.0212L112.904 32.0296C110.533 30.777 107.611 32.0234 106.874 34.6014L99.8168 59.2811C99.2681 61.2002 100.139 63.2413 101.903 64.1737Z" fill="url(#paint3_linear_447_14333)"/>
<g filter="url(#filter1_d_447_14333)">
<path d="M101.903 64.1737L124.599 76.1653C126.97 77.4179 129.892 76.1716 130.629 73.5936L137.686 48.9138C138.235 46.9948 137.364 44.9537 135.599 44.0212L112.904 32.0296C110.533 30.777 107.611 32.0234 106.874 34.6014L99.8168 59.2811C99.2681 61.2002 100.139 63.2413 101.903 64.1737Z" stroke="url(#paint4_linear_447_14333)" stroke-width="0.86" shape-rendering="crispEdges"/>
</g>
<path opacity="0.2" d="M103.229 63.2547L124.728 74.7903C126.974 75.9953 129.73 74.8199 130.415 72.3651L136.972 48.8645C137.482 47.0371 136.65 45.087 134.979 44.19L113.48 32.6544C111.234 31.4494 108.478 32.6248 107.793 35.0796L101.235 58.5802C100.725 60.4076 101.557 62.3577 103.229 63.2547Z" fill="url(#paint5_linear_447_14333)"/>
<g filter="url(#filter2_d_447_14333)">
<path d="M53.9468 83.6793L76.6423 95.6709C79.013 96.9235 81.9356 95.6771 82.6727 93.0991L89.7294 68.4194C90.2781 66.5003 89.4077 64.4593 87.6429 63.5268L64.9474 51.5352C62.5767 50.2826 59.6541 51.5289 58.917 54.1069L51.8603 78.7867C51.3116 80.7057 52.182 82.7468 53.9468 83.6793Z" stroke="url(#paint6_linear_447_14333)" stroke-width="0.86" shape-rendering="crispEdges"/>
</g>
<path opacity="0.4" d="M53.9468 83.6793L76.6423 95.6709C79.013 96.9235 81.9356 95.6771 82.6727 93.0991L89.7294 68.4194C90.2781 66.5003 89.4077 64.4593 87.6429 63.5268L64.9474 51.5352C62.5767 50.2826 59.6541 51.5289 58.917 54.1069L51.8603 78.7867C51.3116 80.7057 52.182 82.7468 53.9468 83.6793Z" fill="url(#paint7_linear_447_14333)"/>
<path opacity="0.2" d="M54.3753 83.1427L76.3421 94.479C78.6366 95.6631 81.4845 94.4486 82.2184 91.9729L89.2435 68.2729C89.7898 66.43 88.9582 64.4799 87.2501 63.5984L65.2833 52.2622C62.9888 51.0781 60.1408 52.2926 59.407 54.7682L52.3819 78.4683C51.8356 80.3112 52.6672 82.2613 54.3753 83.1427Z" fill="url(#paint8_linear_447_14333)"/>
<path opacity="0.4" d="M66.2156 45.3584L88.9112 57.35C91.2819 58.6026 94.2045 57.3562 94.9416 54.7783L101.998 30.0985C102.547 28.1795 101.677 26.1384 99.9118 25.2059L77.2162 13.2143C74.8455 11.9617 71.9229 13.2081 71.1858 15.786L64.1291 40.4658C63.5804 42.3848 64.4509 44.4259 66.2156 45.3584Z" fill="url(#paint9_linear_447_14333)"/>
<g filter="url(#filter3_d_447_14333)">
<path d="M66.2156 45.3584L88.9112 57.35C91.2819 58.6026 94.2045 57.3562 94.9416 54.7783L101.998 30.0985C102.547 28.1795 101.677 26.1384 99.9118 25.2059L77.2162 13.2143C74.8455 11.9617 71.9229 13.2081 71.1858 15.786L64.1291 40.4658C63.5804 42.3848 64.4509 44.4259 66.2156 45.3584Z" stroke="url(#paint10_linear_447_14333)" stroke-width="0.86" shape-rendering="crispEdges"/>
</g>
<path opacity="0.2" d="M66.9719 44.2738L88.9386 55.61C91.2332 56.7941 94.0811 55.5796 94.8149 53.104L101.84 29.4039C102.386 27.561 101.555 25.6109 99.8466 24.7294L77.8799 13.3932C75.5853 12.2091 72.7374 13.4236 72.0036 15.8992L64.9784 39.5993C64.4321 41.4422 65.2638 43.3923 66.9719 44.2738Z" fill="url(#paint11_linear_447_14333)"/>
</g>
<defs>
<filter id="filter0_d_447_14333" x="88.7091" y="79.8679" width="49.6883" height="56.6111" filterUnits="userSpaceOnUse" color-interpolation-filters="sRGB">
<feFlood flood-opacity="0" result="BackgroundImageFix"/>
<feColorMatrix in="SourceAlpha" type="matrix" values="0 0 0 0 0 0 0 0 0 0 0 0 0 0 0 0 0 0 127 0" result="hardAlpha"/>
<feOffset/>
<feGaussianBlur stdDeviation="2.65818"/>
<feComposite in2="hardAlpha" operator="out"/>
<feColorMatrix type="matrix" values="0 0 0 0 0.105882 0 0 0 0 0.647059 0 0 0 0 0.972549 0 0 0 0.25 0"/>
<feBlend mode="normal" in2="BackgroundImageFix" result="effect1_dropShadow_447_14333"/>
<feBlend mode="normal" in="SourceGraphic" in2="effect1_dropShadow_447_14333" result="shape"/>
</filter>
<filter id="filter1_d_447_14333" x="93.9073" y="25.7919" width="49.6883" height="56.6111" filterUnits="userSpaceOnUse" color-interpolation-filters="sRGB">
<feFlood flood-opacity="0" result="BackgroundImageFix"/>
<feColorMatrix in="SourceAlpha" type="matrix" values="0 0 0 0 0 0 0 0 0 0 0 0 0 0 0 0 0 0 127 0" result="hardAlpha"/>
<feOffset/>
<feGaussianBlur stdDeviation="2.65818"/>
<feComposite in2="hardAlpha" operator="out"/>
<feColorMatrix type="matrix" values="0 0 0 0 0.105882 0 0 0 0 0.647059 0 0 0 0 0.972549 0 0 0 0.25 0"/>
<feBlend mode="normal" in2="BackgroundImageFix" result="effect1_dropShadow_447_14333"/>
<feBlend mode="normal" in="SourceGraphic" in2="effect1_dropShadow_447_14333" result="shape"/>
</filter>
<filter id="filter2_d_447_14333" x="45.9507" y="45.2975" width="49.6883" height="56.6111" filterUnits="userSpaceOnUse" color-interpolation-filters="sRGB">
<feFlood flood-opacity="0" result="BackgroundImageFix"/>
<feColorMatrix in="SourceAlpha" type="matrix" values="0 0 0 0 0 0 0 0 0 0 0 0 0 0 0 0 0 0 127 0" result="hardAlpha"/>
<feOffset/>
<feGaussianBlur stdDeviation="2.65818"/>
<feComposite in2="hardAlpha" operator="out"/>
<feColorMatrix type="matrix" values="0 0 0 0 0.105882 0 0 0 0 0.647059 0 0 0 0 0.972549 0 0 0 0.25 0"/>
<feBlend mode="normal" in2="BackgroundImageFix" result="effect1_dropShadow_447_14333"/>
<feBlend mode="normal" in="SourceGraphic" in2="effect1_dropShadow_447_14333" result="shape"/>
</filter>
<filter id="filter3_d_447_14333" x="58.2196" y="6.97664" width="49.6882" height="56.6111" filterUnits="userSpaceOnUse" color-interpolation-filters="sRGB">
<feFlood flood-opacity="0" result="BackgroundImageFix"/>
<feColorMatrix in="SourceAlpha" type="matrix" values="0 0 0 0 0 0 0 0 0 0 0 0 0 0 0 0 0 0 127 0" result="hardAlpha"/>
<feOffset/>
<feGaussianBlur stdDeviation="2.65818"/>
<feComposite in2="hardAlpha" operator="out"/>
<feColorMatrix type="matrix" values="0 0 0 0 0.105882 0 0 0 0 0.647059 0 0 0 0 0.972549 0 0 0 0.25 0"/>
<feBlend mode="normal" in2="BackgroundImageFix" result="effect1_dropShadow_447_14333"/>
<feBlend mode="normal" in="SourceGraphic" in2="effect1_dropShadow_447_14333" result="shape"/>
</filter>
<linearGradient id="paint0_linear_447_14333" x1="131.758" y1="100.636" x2="96.3785" y2="115.724" gradientUnits="userSpaceOnUse">
<stop stop-color="#FDFEFE"/>
<stop offset="0.455" stop-color="#FDFEFE" stop-opacity="0"/>
</linearGradient>
<linearGradient id="paint1_linear_447_14333" x1="104.078" y1="85.955" x2="123.029" y2="130.392" gradientUnits="userSpaceOnUse">
<stop stop-color="#FDFEFE"/>
<stop offset="1" stop-color="#FDFEFE" stop-opacity="0"/>
</linearGradient>
<linearGradient id="paint2_linear_447_14333" x1="104.078" y1="85.955" x2="123.029" y2="130.392" gradientUnits="userSpaceOnUse">
<stop stop-color="#FDFEFE"/>
<stop offset="1" stop-color="#FDFEFE" stop-opacity="0"/>
</linearGradient>
<linearGradient id="paint3_linear_447_14333" x1="109.276" y1="31.879" x2="128.227" y2="76.3159" gradientUnits="userSpaceOnUse">
<stop stop-color="#FDFEFE"/>
<stop offset="1" stop-color="#FDFEFE" stop-opacity="0"/>
</linearGradient>
<linearGradient id="paint4_linear_447_14333" x1="109.276" y1="31.879" x2="128.227" y2="76.3159" gradientUnits="userSpaceOnUse">
<stop stop-color="#FDFEFE"/>
<stop offset="1" stop-color="#FDFEFE" stop-opacity="0"/>
</linearGradient>
<linearGradient id="paint5_linear_447_14333" x1="136.794" y1="46.1784" x2="101.414" y2="61.2663" gradientUnits="userSpaceOnUse">
<stop stop-color="#FDFEFE"/>
<stop offset="0.455" stop-color="#FDFEFE" stop-opacity="0"/>
</linearGradient>
<linearGradient id="paint6_linear_447_14333" x1="61.3196" y1="51.3846" x2="80.2701" y2="95.8215" gradientUnits="userSpaceOnUse">
<stop stop-color="#FDFEFE"/>
<stop offset="1" stop-color="#FDFEFE" stop-opacity="0"/>
</linearGradient>
<linearGradient id="paint7_linear_447_14333" x1="61.3196" y1="51.3846" x2="80.2701" y2="95.8215" gradientUnits="userSpaceOnUse">
<stop stop-color="#FDFEFE"/>
<stop offset="1" stop-color="#FDFEFE" stop-opacity="0"/>
</linearGradient>
<linearGradient id="paint8_linear_447_14333" x1="52.5332" y1="81.166" x2="89.0922" y2="65.5751" gradientUnits="userSpaceOnUse">
<stop stop-color="#FDFEFE"/>
<stop offset="0.455" stop-color="#FDFEFE" stop-opacity="0"/>
</linearGradient>
<linearGradient id="paint9_linear_447_14333" x1="73.5884" y1="13.0637" x2="92.539" y2="57.5006" gradientUnits="userSpaceOnUse">
<stop stop-color="#FDFEFE"/>
<stop offset="1" stop-color="#FDFEFE" stop-opacity="0"/>
</linearGradient>
<linearGradient id="paint10_linear_447_14333" x1="73.5884" y1="13.0637" x2="92.539" y2="57.5006" gradientUnits="userSpaceOnUse">
<stop stop-color="#FDFEFE"/>
<stop offset="1" stop-color="#FDFEFE" stop-opacity="0"/>
</linearGradient>
<linearGradient id="paint11_linear_447_14333" x1="74.3565" y1="13.2738" x2="92.462" y2="55.7294" gradientUnits="userSpaceOnUse">
<stop stop-color="#FDFEFE"/>
<stop offset="0.455" stop-color="#FDFEFE" stop-opacity="0"/>
</linearGradient>
<clipPath id="clip0_447_14333">
<rect width="149.08" height="149.08" fill="white" transform="matrix(-0.919847 0.392278 0.392278 0.919847 137.13 -27)"/>
</clipPath>
</defs>
</svg>
