<svg preserveAspectRatio="none" width="100%" height="100%" overflow="visible" style="display: block;" viewBox="0 0 21 22.6667" fill="none" xmlns="http://www.w3.org/2000/svg">
<g id="calculator">
<path id="Vector" opacity="0.2" d="M8.83301 1.5C6.60187 1.50004 4.65032 1.93757 3.29395 3.29395C1.93757 4.65032 1.50004 6.60187 1.5 8.83301V13.833C1.5 16.0643 1.93751 18.0166 3.29395 19.373C4.65031 20.7293 6.60196 21.1669 8.83301 21.167H12.167C14.398 21.1669 16.3497 20.7293 17.7061 19.373C19.0625 18.0166 19.5 16.0643 19.5 13.833V8.83301C19.5 6.60187 19.0624 4.65032 17.7061 3.29395C16.3497 1.93757 14.3981 1.50004 12.167 1.5H8.83301Z" fill="var(--fill-0, #3E75E2)" stroke="var(--stroke-0, #97A5BA)" stroke-width="3" stroke-linecap="round" stroke-linejoin="round"/>
<path id="Vector_2" d="M8.83333 19.6667H12.1667C16.3333 19.6667 18 18 18 13.8333V8.83333C18 4.66667 16.3333 3 12.1667 3H8.83333C4.66667 3 3 4.66667 3 8.83333V13.8333C3 18 4.66667 19.6667 8.83333 19.6667Z" stroke="var(--stroke-0, #3E75E2)" stroke-width="1.35" stroke-linecap="round" stroke-linejoin="round"/>
<path id="Vector_3" d="M14.25 7.65V8.48333C14.25 9.16667 13.6917 9.73333 13 9.73333H8C7.31667 9.73333 6.75 9.175 6.75 8.48333V7.65C6.75 6.96667 7.30833 6.4 8 6.4H13C13.6917 6.4 14.25 6.95833 14.25 7.65Z" fill="var(--fill-0, #FDFEFE)" stroke="var(--stroke-0, #3E75E2)" stroke-width="1.35" stroke-linecap="round" stroke-linejoin="round"/>
<path id="Vector_4" d="M7.2801 13H7.28973" stroke="var(--stroke-0, #3E75E2)" stroke-width="1.83333" stroke-linecap="round" stroke-linejoin="round"/>
<path id="Vector_5" d="M10.496 13H10.5057" stroke="var(--stroke-0, #3E75E2)" stroke-width="1.83333" stroke-linecap="round" stroke-linejoin="round"/>
<path id="Vector_6" d="M13.7119 13H13.7216" stroke="var(--stroke-0, #3E75E2)" stroke-width="1.83333" stroke-linecap="round" stroke-linejoin="round"/>
<path id="Vector_7" d="M7.2801 15.9167H7.28973" stroke="var(--stroke-0, #3E75E2)" stroke-width="1.83333" stroke-linecap="round" stroke-linejoin="round"/>
<path id="Vector_8" d="M10.496 15.9167H10.5057" stroke="var(--stroke-0, #3E75E2)" stroke-width="1.83333" stroke-linecap="round" stroke-linejoin="round"/>
<path id="Vector_9" d="M13.7119 15.9167H13.7216" stroke="var(--stroke-0, #3E75E2)" stroke-width="1.83333" stroke-linecap="round" stroke-linejoin="round"/>
<g id="Vector_10" opacity="0">
</g>
</g>
</svg>
