<svg width="21" height="23" viewBox="0 0 21 23" fill="none" xmlns="http://www.w3.org/2000/svg">
<path opacity="0.2" d="M8.83301 1.5C6.60187 1.50004 4.65032 1.93757 3.29395 3.29395C1.93757 4.65032 1.50004 6.60187 1.5 8.83301V13.833C1.5 16.0643 1.93751 18.0166 3.29395 19.373C4.65031 20.7293 6.60195 21.1669 8.83301 21.167H12.167C14.398 21.1669 16.3497 20.7293 17.7061 19.373C19.0625 18.0166 19.5 16.0643 19.5 13.833V8.83301C19.5 6.60187 19.0624 4.65032 17.7061 3.29395C16.3497 1.93757 14.3981 1.50004 12.167 1.5H8.83301Z" fill="#FDFEFE" stroke="#97A5BA" stroke-width="3" stroke-linecap="round" stroke-linejoin="round"/>
<path d="M8.83333 19.6667H12.1667C16.3333 19.6667 18 18 18 13.8333V8.83333C18 4.66667 16.3333 3 12.1667 3H8.83333C4.66667 3 3 4.66667 3 8.83333V13.8333C3 18 4.66667 19.6667 8.83333 19.6667Z" stroke="#FDFEFE" stroke-width="1.35" stroke-linecap="round" stroke-linejoin="round"/>
<path d="M14.25 7.65002V8.48336C14.25 9.16669 13.6917 9.73336 13 9.73336H8C7.31667 9.73336 6.75 9.17502 6.75 8.48336V7.65002C6.75 6.96669 7.30833 6.40002 8 6.40002H13C13.6917 6.40002 14.25 6.95836 14.25 7.65002Z" fill="#7DA5EB" stroke="#FDFEFE" stroke-width="1.35" stroke-linecap="round" stroke-linejoin="round"/>
<path d="M7.2801 13H7.28973" stroke="#FDFEFE" stroke-width="1.83333" stroke-linecap="round" stroke-linejoin="round"/>
<path d="M10.496 13H10.5057" stroke="#FDFEFE" stroke-width="1.83333" stroke-linecap="round" stroke-linejoin="round"/>
<path d="M13.7119 13H13.7216" stroke="#FDFEFE" stroke-width="1.83333" stroke-linecap="round" stroke-linejoin="round"/>
<path d="M7.2801 15.9167H7.28973" stroke="#FDFEFE" stroke-width="1.83333" stroke-linecap="round" stroke-linejoin="round"/>
<path d="M10.496 15.9167H10.5057" stroke="#FDFEFE" stroke-width="1.83333" stroke-linecap="round" stroke-linejoin="round"/>
<path d="M13.7119 15.9167H13.7216" stroke="#FDFEFE" stroke-width="1.83333" stroke-linecap="round" stroke-linejoin="round"/>
</svg>
