<svg preserveAspectRatio="none" width="100%" height="100%" overflow="visible" style="display: block;" viewBox="0 0 52.0202 52.4237" fill="none" xmlns="http://www.w3.org/2000/svg">
<g id="Frame 35" clip-path="url(#clip0_0_46)">
<path id="Ellipse 7" d="M26.0098 1C39.8152 1 51.0205 12.2805 51.0205 26.2119C51.0205 40.1433 39.8152 51.4238 26.0098 51.4238C12.2045 51.4237 1.00003 40.1432 1 26.2119C1 12.2806 12.2045 1.00017 26.0098 1Z" fill="var(--fill-0, #0B4CA9)" fill-opacity="0.5" stroke="url(#paint0_linear_0_46)" stroke-width="2"/>
<g id="icon" clip-path="url(#clip1_0_46)">
<path id="Vector" opacity="0.62" d="M21.0033 36.7051L25.426 31.225C25.8878 30.6529 26.7571 30.6529 27.2189 31.225L31.6417 36.7051C31.9857 37.1316 31.9857 37.741 31.6417 38.1674L27.2189 43.6475C26.7571 44.2197 25.8878 44.2197 25.426 43.6475L21.0033 38.1674C20.6593 37.741 20.6593 37.1316 21.0033 36.7051Z" fill="var(--fill-0, white)"/>
<path id="Vector_2" d="M27.8709 23.3032L32.2936 17.8231C32.7554 17.251 33.6247 17.251 34.0866 17.8231L38.5093 23.3032C38.8533 23.7296 38.8533 24.3391 38.5093 24.7655L34.0866 30.2456C33.6247 30.8178 32.7554 30.8178 32.2936 30.2456L27.8709 24.7655C27.5269 24.3391 27.5269 23.7296 27.8709 23.3032Z" fill="var(--fill-0, white)"/>
<path id="Vector_3" d="M14.1301 23.3032L18.5528 17.8232C19.0146 17.2511 19.8839 17.2511 20.3457 17.8232L24.7685 23.3032C25.1125 23.7297 25.1125 24.3392 24.7685 24.7656L20.3457 30.2457C19.8839 30.8178 19.0146 30.8178 18.5528 30.2457L14.1301 24.7656C13.786 24.3392 13.786 23.7297 14.1301 23.3032Z" fill="var(--fill-0, white)"/>
<path id="Vector_4" d="M21.0033 14.739L25.426 9.2583C25.8878 8.68614 26.7572 8.68614 27.2189 9.2583L31.6417 14.7384C31.9857 15.1648 31.9857 15.7742 31.6417 16.2007L27.2189 21.6807C26.7572 22.2529 25.8878 22.2529 25.426 21.6807L21.0033 16.2014C20.6593 15.7749 20.6593 15.1648 21.0033 14.739Z" fill="var(--fill-0, white)"/>
</g>
</g>
<defs>
<linearGradient id="paint0_linear_0_46" x1="26.0101" y1="52.4237" x2="26.0101" y2="0" gradientUnits="userSpaceOnUse">
<stop stop-color="#8F28C2"/>
<stop offset="1" stop-color="#D3699F"/>
</linearGradient>
<clipPath id="clip0_0_46">
<rect width="52.0202" height="52.4237" fill="white"/>
</clipPath>
<clipPath id="clip1_0_46">
<rect width="24.8953" height="35.2474" fill="white" transform="translate(13.8721 8.82922)"/>
</clipPath>
</defs>
</svg>
