<svg width="160" height="36" viewBox="0 0 160 36" fill="none" xmlns="http://www.w3.org/2000/svg">
<path opacity="0.62" d="M6.78775 25.3012L10.833 20.3274C11.2554 19.8082 12.0505 19.8082 12.4729 20.3274L16.5182 25.3012C16.8328 25.6882 16.8328 26.2414 16.5182 26.6284L12.4729 31.6022C12.0505 32.1214 11.2554 32.1214 10.833 31.6022L6.78775 26.6284C6.47309 26.2414 6.47309 25.6882 6.78775 25.3012Z" fill="#3E75E2"/>
<path d="M13.0729 13.1382L17.1181 8.16437C17.5405 7.64508 18.3357 7.64508 18.758 8.16437L22.8032 13.1382C23.118 13.5252 23.118 14.0783 22.8032 14.4654L18.758 19.4392C18.3357 19.9585 17.5405 19.9585 17.1181 19.4392L13.0729 14.4654C12.7583 14.0783 12.7583 13.5252 13.0729 13.1382Z" fill="#3E75E2"/>
<path d="M0.5026 13.1382L4.54786 8.16437C4.97023 7.64508 5.76537 7.64508 6.18775 8.16437L10.233 13.1382C10.5476 13.5252 10.5476 14.0783 10.233 14.4654L6.18775 19.4392C5.76537 19.9585 4.97023 19.9585 4.54786 19.4392L0.5026 14.4654C0.187935 14.0783 0.187935 13.5252 0.5026 13.1382Z" fill="#3E75E2"/>
<path d="M6.78775 5.36384L10.833 0.389472C11.2554 -0.129824 12.0505 -0.129824 12.4729 0.389472L16.5182 5.36324C16.8328 5.7503 16.8328 6.30341 16.5182 6.69046L12.4729 11.6642C12.0505 12.1835 11.2554 12.1835 10.833 11.6642L6.78775 6.69106C6.47309 6.30401 6.47309 5.7503 6.78775 5.36384Z" fill="#3E75E2"/>
<path d="M153.804 12.3356L159.606 18.619H156.089L151.427 13.2039V18.619H148.822V1.71094H151.427V11.5359L155.997 6.02935H159.606L153.804 12.3356Z" fill="#FDFEFE"/>
<path d="M142.859 7.85727C143.239 7.2175 143.743 6.72244 144.367 6.3721C145.007 6.00652 145.761 5.82373 146.628 5.82373V8.51988H145.966C144.945 8.51988 144.168 8.77883 143.636 9.29674C143.118 9.81464 142.859 10.7134 142.859 11.9929V18.619H140.254V6.02937H142.859V7.85727Z" fill="#FDFEFE"/>
<path d="M131.346 18.8247C130.157 18.8247 129.083 18.5581 128.124 18.025C127.164 17.4766 126.41 16.7149 125.862 15.7401C125.314 14.75 125.039 13.6075 125.039 12.3128C125.039 11.0333 125.321 9.89842 125.885 8.90831C126.448 7.9182 127.217 7.15657 128.193 6.62344C129.168 6.0903 130.257 5.82373 131.46 5.82373C132.664 5.82373 133.753 6.0903 134.727 6.62344C135.702 7.15657 136.471 7.9182 137.035 8.90831C137.599 9.89842 137.881 11.0333 137.881 12.3128C137.881 13.5923 137.591 14.7271 137.012 15.7173C136.433 16.7074 135.641 17.4766 134.636 18.025C133.646 18.5581 132.549 18.8247 131.346 18.8247ZM131.346 16.5627C132.015 16.5627 132.641 16.4027 133.219 16.0828C133.813 15.7629 134.293 15.2831 134.659 14.6434C135.024 14.0036 135.207 13.2267 135.207 12.3128C135.207 11.3988 135.032 10.6296 134.682 10.0051C134.332 9.36529 133.867 8.88546 133.288 8.56558C132.709 8.2457 132.085 8.08576 131.415 8.08576C130.744 8.08576 130.119 8.2457 129.54 8.56558C128.977 8.88546 128.528 9.36529 128.193 10.0051C127.857 10.6296 127.69 11.3988 127.69 12.3128C127.69 13.6685 128.033 14.7196 128.718 15.4659C129.419 16.1971 130.294 16.5627 131.346 16.5627Z" fill="#FDFEFE"/>
<path d="M124.139 6.0293L120.232 18.619H117.491L114.954 9.31952L112.418 18.619H109.676L105.746 6.0293H108.396L111.024 16.1513L113.697 6.0293H116.417L118.975 16.1056L121.58 6.0293H124.139Z" fill="#FDFEFE"/>
<path d="M101.97 8.15463V15.1235C101.97 15.5957 102.076 15.9384 102.29 16.1517C102.518 16.3497 102.9 16.4487 103.432 16.4487H105.032V18.6194H102.975C101.803 18.6194 100.904 18.3452 100.279 17.7968C99.6548 17.2484 99.3426 16.3573 99.3426 15.1235V8.15463H97.8574V6.02969H99.3426V2.89941H101.97V6.02969H105.032V8.15463H101.97Z" fill="#FDFEFE"/>
<path d="M96.569 12.0158C96.569 12.4879 96.5385 12.9145 96.4776 13.2953H86.8583C86.9345 14.3006 87.3076 15.108 87.9779 15.7173C88.6481 16.3265 89.4707 16.6312 90.4455 16.6312C91.8469 16.6312 92.837 16.0448 93.4159 14.8718H96.2263C95.8455 16.0295 95.1524 16.9816 94.147 17.7279C93.1569 18.4591 91.923 18.8247 90.4455 18.8247C89.2422 18.8247 88.1606 18.5581 87.201 18.025C86.2565 17.4766 85.5102 16.7149 84.9618 15.7401C84.4286 14.75 84.1621 13.6075 84.1621 12.3128C84.1621 11.0181 84.4211 9.88319 84.939 8.90831C85.4721 7.9182 86.2108 7.15657 87.1553 6.62344C88.1149 6.0903 89.2117 5.82373 90.4455 5.82373C91.6337 5.82373 92.6923 6.08268 93.6215 6.60059C94.5506 7.11849 95.2743 7.84965 95.7921 8.79407C96.31 9.72325 96.569 10.7971 96.569 12.0158ZM93.85 11.1932C93.8348 10.2335 93.4921 9.46429 92.8218 8.88546C92.1515 8.30662 91.3214 8.01721 90.3313 8.01721C89.4325 8.01721 88.6633 8.30662 88.0236 8.88546C87.3838 9.44906 87.003 10.2184 86.8811 11.1932H93.85Z" fill="#FDFEFE"/>
<path d="M76.7455 5.82373C77.7357 5.82373 78.6191 6.02937 79.396 6.44065C80.188 6.85192 80.8049 7.46122 81.2467 8.26855C81.6885 9.07586 81.9093 10.0508 81.9093 11.1932V18.619H79.3274V11.5816C79.3274 10.4544 79.0456 9.59378 78.482 8.99971C77.9184 8.3904 77.1491 8.08576 76.1743 8.08576C75.1994 8.08576 74.4226 8.3904 73.8437 8.99971C73.2802 9.59378 72.9983 10.4544 72.9983 11.5816V18.619H70.3936V6.02937H72.9983V7.46884C73.4248 6.95093 73.9656 6.54727 74.6206 6.25786C75.2908 5.96843 75.9992 5.82373 76.7455 5.82373Z" fill="#FDFEFE"/>
<path d="M66.5254 18.7793C66.0532 18.7793 65.6571 18.6193 65.3372 18.2995C65.0174 17.9796 64.8574 17.5835 64.8574 17.1113C64.8574 16.6391 65.0174 16.2431 65.3372 15.9232C65.6571 15.6033 66.0532 15.4434 66.5254 15.4434C66.9824 15.4434 67.3708 15.6033 67.6907 15.9232C68.0106 16.2431 68.1705 16.6391 68.1705 17.1113C68.1705 17.5835 68.0106 17.9796 67.6907 18.2995C67.3708 18.6193 66.9824 18.7793 66.5254 18.7793Z" fill="#3E75E2"/>
<path d="M59.9154 16.2884L63.4797 6.0293H66.2445L61.4462 18.619H58.3389L53.5635 6.0293H56.3509L59.9154 16.2884Z" fill="#FDFEFE"/>
<path d="M47.6136 18.8247C46.6235 18.8247 45.7324 18.6495 44.9403 18.2992C44.1635 17.9336 43.5465 17.4461 43.0896 16.8368C42.6326 16.2123 42.3888 15.5193 42.3584 14.7576H45.0546C45.1003 15.2908 45.3516 15.7401 45.8086 16.1057C46.2807 16.4561 46.8672 16.6312 47.5679 16.6312C48.2991 16.6312 48.8626 16.4941 49.2587 16.2199C49.67 15.9305 49.8756 15.565 49.8756 15.1232C49.8756 14.651 49.6471 14.3006 49.1902 14.0721C48.7484 13.8437 48.0401 13.5923 47.0652 13.3181C46.1208 13.0591 45.3516 12.8078 44.7575 12.5641C44.1634 12.3204 43.6455 11.9472 43.2038 11.4445C42.7772 10.9419 42.564 10.2792 42.564 9.45668C42.564 8.78645 42.762 8.17715 43.1581 7.62878C43.5541 7.06517 44.1178 6.62344 44.8489 6.30355C45.5953 5.98367 46.4483 5.82373 47.408 5.82373C48.8398 5.82373 49.9899 6.18931 50.8581 6.92047C51.7416 7.63639 52.2138 8.61889 52.2748 9.86796H49.67C49.6243 9.30435 49.3958 8.85499 48.9845 8.51988C48.5733 8.18476 48.0172 8.01721 47.3166 8.01721C46.6311 8.01721 46.1056 8.14668 45.74 8.40564C45.3744 8.66459 45.1916 9.00732 45.1916 9.43383C45.1916 9.76894 45.3134 10.0507 45.5572 10.2792C45.8009 10.5077 46.0979 10.6905 46.4483 10.8276C46.7986 10.9495 47.3166 11.1095 48.002 11.3074C48.916 11.5511 49.6624 11.8025 50.2412 12.0615C50.8353 12.3051 51.3455 12.6707 51.7721 13.1582C52.1986 13.6457 52.4194 14.293 52.4347 15.1003C52.4347 15.8163 52.2366 16.4561 51.8406 17.0196C51.4446 17.5832 50.881 18.025 50.1498 18.3449C49.4339 18.6647 48.5885 18.8247 47.6136 18.8247Z" fill="#FDFEFE"/>
<path d="M35.6097 18.8247C34.6196 18.8247 33.7285 18.6495 32.9364 18.2992C32.1595 17.9336 31.5426 17.4461 31.0857 16.8368C30.6287 16.2123 30.385 15.5193 30.3545 14.7576H33.0506C33.0963 15.2908 33.3477 15.7401 33.8047 16.1057C34.2768 16.4561 34.8633 16.6312 35.564 16.6312C36.2952 16.6312 36.8587 16.4941 37.2548 16.2199C37.6661 15.9305 37.8717 15.565 37.8717 15.1232C37.8717 14.651 37.6432 14.3006 37.1863 14.0721C36.7445 13.8437 36.0362 13.5923 35.0613 13.3181C34.1169 13.0591 33.3477 12.8078 32.7536 12.5641C32.1595 12.3204 31.6417 11.9472 31.1999 11.4445C30.7734 10.9419 30.5601 10.2792 30.5601 9.45668C30.5601 8.78645 30.7581 8.17715 31.1542 7.62878C31.5503 7.06517 32.1138 6.62344 32.845 6.30355C33.5914 5.98367 34.4444 5.82373 35.4041 5.82373C36.8359 5.82373 37.986 6.18931 38.8542 6.92047C39.7377 7.63639 40.21 8.61889 40.2709 9.86796H37.6661C37.6204 9.30435 37.3919 8.85499 36.9806 8.51988C36.5694 8.18476 36.0133 8.01721 35.3127 8.01721C34.6272 8.01721 34.1017 8.14668 33.7361 8.40564C33.3705 8.66459 33.1877 9.00732 33.1877 9.43383C33.1877 9.76894 33.3096 10.0507 33.5533 10.2792C33.797 10.5077 34.094 10.6905 34.4444 10.8276C34.7948 10.9495 35.3127 11.1095 35.9981 11.3074C36.9121 11.5511 37.6584 11.8025 38.2373 12.0615C38.8314 12.3051 39.3417 12.6707 39.7682 13.1582C40.1947 13.6457 40.4156 14.293 40.4308 15.1003C40.4308 15.8163 40.2328 16.4561 39.8367 17.0196C39.4406 17.5832 38.8771 18.025 38.1459 18.3449C37.43 18.6647 36.5846 18.8247 35.6097 18.8247Z" fill="#FDFEFE"/>
<g clip-path="url(#clip0_28864_4814)">
<path d="M70.5536 25.1675C71.1342 25.1675 71.6412 25.2942 72.0747 25.5477C72.5163 25.8013 72.8434 26.1202 73.056 26.5045V25.2779H74.1845V32.1472C74.1845 32.7605 74.0537 33.3044 73.792 33.7787C73.5303 34.2612 73.1541 34.6373 72.6635 34.9072C72.181 35.1771 71.6167 35.312 70.9707 35.312C70.0875 35.312 69.3515 35.1035 68.7627 34.6864C68.1739 34.2693 67.8263 33.701 67.72 32.9813H68.824C68.9467 33.3902 69.2002 33.7173 69.5845 33.9627C69.9689 34.2162 70.4309 34.3429 70.9707 34.3429C71.584 34.3429 72.0828 34.1508 72.4672 33.7664C72.8597 33.3821 73.056 32.8423 73.056 32.1472V30.7365C72.8352 31.1291 72.5081 31.4562 72.0747 31.7179C71.6412 31.9796 71.1342 32.1104 70.5536 32.1104C69.9566 32.1104 69.4128 31.9632 68.9221 31.6688C68.4396 31.3744 68.0594 30.9614 67.7813 30.4299C67.5033 29.8983 67.3643 29.2932 67.3643 28.6144C67.3643 27.9275 67.5033 27.3264 67.7813 26.8112C68.0594 26.2878 68.4396 25.883 68.9221 25.5968C69.4128 25.3106 69.9566 25.1675 70.5536 25.1675ZM73.056 28.6267C73.056 28.1197 72.9538 27.6781 72.7493 27.3019C72.5449 26.9257 72.2668 26.6395 71.9152 26.4432C71.5717 26.2388 71.1915 26.1365 70.7744 26.1365C70.3573 26.1365 69.9771 26.2347 69.6336 26.4309C69.2901 26.6272 69.0162 26.9134 68.8117 27.2896C68.6073 27.6658 68.5051 28.1074 68.5051 28.6144C68.5051 29.1296 68.6073 29.5794 68.8117 29.9637C69.0162 30.3399 69.2901 30.6302 69.6336 30.8347C69.9771 31.0309 70.3573 31.1291 70.7744 31.1291C71.1915 31.1291 71.5717 31.0309 71.9152 30.8347C72.2668 30.6302 72.5449 30.3399 72.7493 29.9637C72.9538 29.5794 73.056 29.1337 73.056 28.6267Z" fill="#3E75E2"/>
<path d="M63.2098 25.1553C64.0275 25.1553 64.6899 25.4047 65.197 25.9035C65.704 26.3942 65.9575 27.1057 65.9575 28.0379V32.0001H64.8535V28.1974C64.8535 27.5268 64.6859 27.0157 64.3506 26.6641C64.0153 26.3043 63.5573 26.1243 62.9767 26.1243C62.3879 26.1243 61.9177 26.3083 61.566 26.6763C61.2226 27.0443 61.0508 27.58 61.0508 28.2833V32.0001H59.9346V25.2779H61.0508V26.2347C61.2716 25.8913 61.5701 25.6255 61.9463 25.4374C62.3307 25.2493 62.7518 25.1553 63.2098 25.1553Z" fill="#3E75E2"/>
<path d="M57.493 24.1861C57.2803 24.1861 57.1004 24.1125 56.9532 23.9653C56.806 23.8181 56.7324 23.6382 56.7324 23.4256C56.7324 23.2129 56.806 23.033 56.9532 22.8858C57.1004 22.7386 57.2803 22.665 57.493 22.665C57.6974 22.665 57.8691 22.7386 58.0082 22.8858C58.1554 23.033 58.229 23.2129 58.229 23.4256C58.229 23.6382 58.1554 23.8181 58.0082 23.9653C57.8691 24.1125 57.6974 24.1861 57.493 24.1861ZM58.0327 25.2778V32H56.9164V25.2778H58.0327Z" fill="#3E75E2"/>
<path d="M54.3571 32.0002L51.7198 29.0317V32.0002H50.6035V22.9229H51.7198V28.2589L54.308 25.2781H55.8659L52.7011 28.6269L55.8782 32.0002H54.3571Z" fill="#3E75E2"/>
<path d="M41.8965 28.6144C41.8965 27.9275 42.0355 27.3264 42.3136 26.8112C42.5916 26.2878 42.9719 25.883 43.4544 25.5968C43.945 25.3106 44.4888 25.1675 45.0858 25.1675C45.6746 25.1675 46.1857 25.2942 46.6192 25.5477C47.0526 25.8013 47.3756 26.1202 47.5882 26.5045V25.2779H48.7168V32H47.5882V30.7488C47.3674 31.1413 47.0362 31.4685 46.5946 31.7301C46.1612 31.9837 45.6542 32.1104 45.0736 32.1104C44.4766 32.1104 43.9368 31.9632 43.4544 31.6688C42.9719 31.3744 42.5916 30.9614 42.3136 30.4299C42.0355 29.8983 41.8965 29.2932 41.8965 28.6144ZM47.5882 28.6267C47.5882 28.1197 47.486 27.6781 47.2816 27.3019C47.0771 26.9257 46.7991 26.6395 46.4474 26.4432C46.104 26.2388 45.7237 26.1365 45.3066 26.1365C44.8896 26.1365 44.5093 26.2347 44.1658 26.4309C43.8224 26.6272 43.5484 26.9134 43.344 27.2896C43.1395 27.6658 43.0373 28.1074 43.0373 28.6144C43.0373 29.1296 43.1395 29.5794 43.344 29.9637C43.5484 30.3399 43.8224 30.6302 44.1658 30.8347C44.5093 31.0309 44.8896 31.1291 45.3066 31.1291C45.7237 31.1291 46.104 31.0309 46.4474 30.8347C46.7991 30.6302 47.0771 30.3399 47.2816 29.9637C47.486 29.5794 47.5882 29.1337 47.5882 28.6267Z" fill="#3E75E2"/>
<path d="M39.2069 26.1978V30.1599C39.2069 30.487 39.2764 30.7201 39.4155 30.8591C39.5545 30.9899 39.7957 31.0554 40.1392 31.0554H40.9611V31.9999H39.9552C39.3337 31.9999 38.8675 31.8568 38.5568 31.5706C38.246 31.2843 38.0907 30.8141 38.0907 30.1599V26.1978H37.2197V25.2778H38.0907V23.585H39.2069V25.2778H40.9611V26.1978H39.2069Z" fill="#3E75E2"/>
<path d="M33.3567 32.086C32.7924 32.086 32.2854 31.9878 31.8356 31.7916C31.394 31.5871 31.0464 31.3091 30.7929 30.9574C30.5394 30.5976 30.4086 30.1846 30.4004 29.7185H31.5903C31.6311 30.1192 31.7947 30.4586 32.0809 30.7366C32.3753 31.0065 32.8006 31.1414 33.3567 31.1414C33.8882 31.1414 34.3053 31.0106 34.6079 30.7489C34.9186 30.479 35.074 30.1356 35.074 29.7185C35.074 29.3914 34.984 29.1256 34.8041 28.9212C34.6242 28.7167 34.3993 28.5614 34.1295 28.455C33.8596 28.3487 33.4957 28.2342 33.0377 28.1116C32.4735 27.9644 32.0196 27.8172 31.6761 27.67C31.3408 27.5228 31.0505 27.2938 30.8052 26.983C30.568 26.6641 30.4495 26.2389 30.4495 25.7073C30.4495 25.2412 30.568 24.8282 30.8052 24.4684C31.0423 24.1086 31.3735 23.8305 31.7988 23.6342C32.2322 23.438 32.727 23.3398 33.2831 23.3398C34.0845 23.3398 34.7387 23.5402 35.2457 23.9409C35.7609 24.3416 36.0512 24.8732 36.1167 25.5356H34.89C34.8491 25.2085 34.6774 24.9222 34.3748 24.6769C34.0722 24.4234 33.6715 24.2966 33.1727 24.2966C32.7065 24.2966 32.3263 24.4193 32.0319 24.6646C31.7375 24.9018 31.5903 25.2371 31.5903 25.6705C31.5903 25.9813 31.6761 26.2348 31.8479 26.431C32.0278 26.6273 32.2445 26.7786 32.498 26.8849C32.7597 26.983 33.1236 27.0975 33.5897 27.2284C34.154 27.3838 34.6079 27.5391 34.9513 27.6945C35.2948 27.8417 35.5892 28.0748 35.8345 28.3937C36.0799 28.7045 36.2025 29.1297 36.2025 29.6694C36.2025 30.0865 36.0921 30.479 35.8713 30.847C35.6505 31.215 35.3234 31.5135 34.89 31.7425C34.4566 31.9715 33.9455 32.086 33.3567 32.086Z" fill="#3E75E2"/>
</g>
<defs>
<clipPath id="clip0_28864_4814">
<rect width="43.784" height="12.6469" fill="white" transform="translate(30.4004 22.665)"/>
</clipPath>
</defs>
</svg>
