<svg width="160" height="36" viewBox="0 0 160 36" fill="none" xmlns="http://www.w3.org/2000/svg">
<path opacity="0.62" d="M6.78775 25.3011L10.833 20.3273C11.2554 19.808 12.0505 19.808 12.4729 20.3273L16.5182 25.3011C16.8328 25.6881 16.8328 26.2412 16.5182 26.6282L12.4729 31.602C12.0505 32.1213 11.2554 32.1213 10.833 31.602L6.78775 26.6282C6.47309 26.2412 6.47309 25.6881 6.78775 25.3011Z" fill="#3E75E2"/>
<path d="M13.0729 13.1381L17.1181 8.16436C17.5405 7.64506 18.3357 7.64506 18.758 8.16436L22.8032 13.1381C23.118 13.5252 23.118 14.0783 22.8032 14.4654L18.758 19.4392C18.3357 19.9584 17.5405 19.9584 17.1181 19.4392L13.0729 14.4654C12.7583 14.0783 12.7583 13.5252 13.0729 13.1381Z" fill="#3E75E2"/>
<path d="M0.5026 13.1381L4.54786 8.16436C4.97023 7.64506 5.76537 7.64506 6.18775 8.16436L10.233 13.1381C10.5476 13.5252 10.5476 14.0783 10.233 14.4654L6.18775 19.4392C5.76537 19.9584 4.97023 19.9584 4.54786 19.4392L0.5026 14.4654C0.187935 14.0783 0.187935 13.5252 0.5026 13.1381Z" fill="#3E75E2"/>
<path d="M6.78775 5.36384L10.833 0.389472C11.2554 -0.129824 12.0505 -0.129824 12.4729 0.389472L16.5182 5.36324C16.8328 5.7503 16.8328 6.30341 16.5182 6.69046L12.4729 11.6642C12.0505 12.1835 11.2554 12.1835 10.833 11.6642L6.78775 6.69106C6.47309 6.30401 6.47309 5.7503 6.78775 5.36384Z" fill="#3E75E2"/>
<path d="M153.804 12.3358L159.606 18.6192H156.089L151.427 13.2041V18.6192H148.822V1.71114H151.427V11.5361L155.997 6.02955H159.606L153.804 12.3358Z" fill="#033A5D"/>
<path d="M142.859 7.85745C143.239 7.21769 143.743 6.72262 144.367 6.37228C145.007 6.0067 145.761 5.82391 146.628 5.82391V8.52007H145.966C144.945 8.52007 144.168 8.77901 143.636 9.29692C143.118 9.81483 142.859 10.7136 142.859 11.9931V18.6192H140.254V6.02955H142.859V7.85745Z" fill="#033A5D"/>
<path d="M131.346 18.8249C130.157 18.8249 129.083 18.5583 128.124 18.0252C127.164 17.4768 126.41 16.7151 125.862 15.7403C125.314 14.7501 125.039 13.6077 125.039 12.313C125.039 11.0334 125.321 9.8986 125.885 8.90849C126.448 7.91838 127.217 7.15675 128.193 6.62362C129.168 6.09048 130.257 5.82391 131.46 5.82391C132.664 5.82391 133.753 6.09048 134.727 6.62362C135.702 7.15675 136.471 7.91838 137.035 8.90849C137.599 9.8986 137.881 11.0334 137.881 12.313C137.881 13.5925 137.591 14.7273 137.012 15.7174C136.433 16.7076 135.641 17.4768 134.636 18.0252C133.646 18.5583 132.549 18.8249 131.346 18.8249ZM131.346 16.5628C132.015 16.5628 132.641 16.4029 133.219 16.083C133.813 15.7631 134.293 15.2833 134.659 14.6435C135.024 14.0038 135.207 13.2269 135.207 12.313C135.207 11.399 135.032 10.6298 134.682 10.0052C134.332 9.36547 133.867 8.88565 133.288 8.56576C132.709 8.24588 132.085 8.08594 131.415 8.08594C130.744 8.08594 130.119 8.24588 129.54 8.56576C128.977 8.88565 128.528 9.36547 128.193 10.0052C127.857 10.6298 127.69 11.399 127.69 12.313C127.69 13.6687 128.033 14.7197 128.718 15.4661C129.419 16.1973 130.294 16.5628 131.346 16.5628Z" fill="#033A5D"/>
<path d="M124.139 6.02954L120.232 18.6192H117.491L114.954 9.31976L112.418 18.6192H109.676L105.746 6.02954H108.396L111.024 16.1516L113.697 6.02954H116.417L118.975 16.1059L121.58 6.02954H124.139Z" fill="#033A5D"/>
<path d="M101.97 8.15448V15.1234C101.97 15.5955 102.076 15.9383 102.29 16.1515C102.518 16.3495 102.9 16.4486 103.432 16.4486H105.032V18.6192H102.975C101.803 18.6192 100.904 18.345 100.279 17.7967C99.6548 17.2483 99.3426 16.3572 99.3426 15.1234V8.15448H97.8574V6.02955H99.3426V2.89927H101.97V6.02955H105.032V8.15448H101.97Z" fill="#033A5D"/>
<path d="M96.569 12.0159C96.569 12.4881 96.5385 12.9147 96.4776 13.2955H86.8583C86.9345 14.3008 87.3076 15.1082 87.9779 15.7174C88.6481 16.3267 89.4707 16.6314 90.4455 16.6314C91.8469 16.6314 92.837 16.045 93.4159 14.872H96.2263C95.8455 16.0297 95.1524 16.9818 94.147 17.7281C93.1569 18.4593 91.923 18.8249 90.4455 18.8249C89.2422 18.8249 88.1606 18.5583 87.201 18.0252C86.2565 17.4768 85.5102 16.7151 84.9618 15.7403C84.4286 14.7501 84.1621 13.6077 84.1621 12.313C84.1621 11.0182 84.4211 9.88337 84.939 8.90849C85.4721 7.91838 86.2108 7.15675 87.1553 6.62362C88.1149 6.09048 89.2117 5.82391 90.4455 5.82391C91.6337 5.82391 92.6923 6.08286 93.6215 6.60077C94.5506 7.11867 95.2743 7.84983 95.7921 8.79425C96.31 9.72343 96.569 10.7973 96.569 12.0159ZM93.85 11.1934C93.8348 10.2337 93.4921 9.46447 92.8218 8.88565C92.1515 8.30681 91.3214 8.01739 90.3313 8.01739C89.4325 8.01739 88.6633 8.30681 88.0236 8.88565C87.3838 9.44925 87.003 10.2185 86.8811 11.1934H93.85Z" fill="#033A5D"/>
<path d="M76.7455 5.82391C77.7357 5.82391 78.6191 6.02955 79.396 6.44083C80.188 6.85211 80.8049 7.4614 81.2467 8.26873C81.6885 9.07605 81.9093 10.0509 81.9093 11.1934V18.6192H79.3274V11.5818C79.3274 10.4546 79.0456 9.59396 78.482 8.99989C77.9184 8.39058 77.1491 8.08594 76.1743 8.08594C75.1994 8.08594 74.4226 8.39058 73.8437 8.99989C73.2802 9.59396 72.9983 10.4546 72.9983 11.5818V18.6192H70.3936V6.02955H72.9983V7.46902C73.4248 6.95111 73.9656 6.54745 74.6206 6.25804C75.2908 5.96862 75.9992 5.82391 76.7455 5.82391Z" fill="#033A5D"/>
<path d="M66.5254 18.7792C66.0532 18.7792 65.6571 18.6192 65.3372 18.2993C65.0174 17.9795 64.8574 17.5834 64.8574 17.1112C64.8574 16.639 65.0174 16.243 65.3372 15.9231C65.6571 15.6032 66.0532 15.4433 66.5254 15.4433C66.9824 15.4433 67.3708 15.6032 67.6907 15.9231C68.0106 16.243 68.1705 16.639 68.1705 17.1112C68.1705 17.5834 68.0106 17.9795 67.6907 18.2993C67.3708 18.6192 66.9824 18.7792 66.5254 18.7792Z" fill="#3E75E2"/>
<path d="M59.9154 16.2887L63.4797 6.02954H66.2445L61.4462 18.6192H58.3389L53.5635 6.02954H56.3509L59.9154 16.2887Z" fill="#033A5D"/>
<path d="M47.6136 18.8249C46.6235 18.8249 45.7324 18.6497 44.9403 18.2993C44.1635 17.9338 43.5465 17.4463 43.0896 16.837C42.6326 16.2125 42.3888 15.5194 42.3584 14.7578H45.0546C45.1003 15.291 45.3516 15.7403 45.8086 16.1059C46.2807 16.4562 46.8672 16.6314 47.5679 16.6314C48.2991 16.6314 48.8626 16.4943 49.2587 16.2201C49.67 15.9307 49.8756 15.5651 49.8756 15.1234C49.8756 14.6512 49.6472 14.3008 49.1902 14.0723C48.7484 13.8438 48.0401 13.5925 47.0652 13.3183C46.1208 13.0593 45.3516 12.808 44.7575 12.5643C44.1634 12.3206 43.6455 11.9474 43.2038 11.4447C42.7772 10.942 42.564 10.2794 42.564 9.45687C42.564 8.78663 42.762 8.17734 43.1581 7.62897C43.5541 7.06536 44.1178 6.62362 44.8489 6.30374C45.5953 5.98385 46.4483 5.82391 47.408 5.82391C48.8398 5.82391 49.9899 6.18949 50.8581 6.92065C51.7416 7.63657 52.2138 8.61907 52.2748 9.86814H49.67C49.6243 9.30453 49.3958 8.85518 48.9845 8.52007C48.5733 8.18494 48.0172 8.01739 47.3166 8.01739C46.6311 8.01739 46.1056 8.14687 45.74 8.40582C45.3744 8.66477 45.1916 9.0075 45.1916 9.43402C45.1916 9.76913 45.3134 10.0509 45.5572 10.2794C45.8009 10.5079 46.0979 10.6907 46.4483 10.8278C46.7986 10.9497 47.3166 11.1096 48.002 11.3076C48.916 11.5513 49.6624 11.8026 50.2412 12.0616C50.8353 12.3053 51.3455 12.6709 51.7721 13.1584C52.1986 13.6458 52.4194 14.2932 52.4347 15.1005C52.4347 15.8165 52.2366 16.4562 51.8406 17.0198C51.4446 17.5834 50.881 18.0252 50.1498 18.345C49.4339 18.6649 48.5885 18.8249 47.6136 18.8249Z" fill="#033A5D"/>
<path d="M35.6097 18.8249C34.6196 18.8249 33.7285 18.6497 32.9364 18.2993C32.1595 17.9338 31.5426 17.4463 31.0857 16.837C30.6287 16.2125 30.385 15.5194 30.3545 14.7578H33.0506C33.0963 15.291 33.3477 15.7403 33.8047 16.1059C34.2768 16.4562 34.8633 16.6314 35.564 16.6314C36.2952 16.6314 36.8587 16.4943 37.2548 16.2201C37.6661 15.9307 37.8717 15.5651 37.8717 15.1234C37.8717 14.6512 37.6432 14.3008 37.1863 14.0723C36.7445 13.8438 36.0362 13.5925 35.0613 13.3183C34.1169 13.0593 33.3477 12.808 32.7536 12.5643C32.1595 12.3206 31.6417 11.9474 31.1999 11.4447C30.7734 10.942 30.5601 10.2794 30.5601 9.45687C30.5601 8.78663 30.7581 8.17734 31.1542 7.62897C31.5503 7.06536 32.1138 6.62362 32.845 6.30374C33.5914 5.98385 34.4444 5.82391 35.4041 5.82391C36.8359 5.82391 37.986 6.18949 38.8542 6.92065C39.7377 7.63657 40.21 8.61907 40.2709 9.86814H37.6661C37.6204 9.30453 37.3919 8.85518 36.9806 8.52007C36.5694 8.18494 36.0133 8.01739 35.3127 8.01739C34.6272 8.01739 34.1017 8.14687 33.7361 8.40582C33.3705 8.66477 33.1877 9.0075 33.1877 9.43402C33.1877 9.76913 33.3096 10.0509 33.5533 10.2794C33.797 10.5079 34.094 10.6907 34.4444 10.8278C34.7948 10.9497 35.3127 11.1096 35.9981 11.3076C36.9121 11.5513 37.6584 11.8026 38.2373 12.0616C38.8314 12.3053 39.3417 12.6709 39.7682 13.1584C40.1947 13.6458 40.4156 14.2932 40.4308 15.1005C40.4308 15.8165 40.2328 16.4562 39.8367 17.0198C39.4406 17.5834 38.8771 18.0252 38.1459 18.345C37.43 18.6649 36.5846 18.8249 35.6097 18.8249Z" fill="#033A5D"/>
<g clip-path="url(#clip0_28864_8916)">
<path d="M70.5536 25.1675C71.1342 25.1675 71.6412 25.2942 72.0747 25.5477C72.5163 25.8012 72.8434 26.1202 73.056 26.5045V25.2779H74.1845V32.1472C74.1845 32.7605 74.0537 33.3044 73.792 33.7787C73.5303 34.2612 73.1541 34.6373 72.6635 34.9072C72.181 35.1771 71.6167 35.312 70.9707 35.312C70.0875 35.312 69.3515 35.1035 68.7627 34.6864C68.1739 34.2693 67.8263 33.701 67.72 32.9813H68.824C68.9467 33.3902 69.2002 33.7173 69.5845 33.9627C69.9689 34.2162 70.4309 34.3429 70.9707 34.3429C71.584 34.3429 72.0828 34.1508 72.4672 33.7664C72.8597 33.382 73.056 32.8423 73.056 32.1472V30.7365C72.8352 31.1291 72.5081 31.4562 72.0747 31.7179C71.6412 31.9796 71.1342 32.1104 70.5536 32.1104C69.9566 32.1104 69.4128 31.9632 68.9221 31.6688C68.4396 31.3744 68.0594 30.9614 67.7813 30.4299C67.5033 29.8983 67.3643 29.2932 67.3643 28.6144C67.3643 27.9275 67.5033 27.3264 67.7813 26.8112C68.0594 26.2878 68.4396 25.883 68.9221 25.5968C69.4128 25.3106 69.9566 25.1675 70.5536 25.1675ZM73.056 28.6267C73.056 28.1196 72.9538 27.678 72.7493 27.3019C72.5449 26.9257 72.2668 26.6395 71.9152 26.4432C71.5717 26.2388 71.1915 26.1365 70.7744 26.1365C70.3573 26.1365 69.9771 26.2347 69.6336 26.4309C69.2901 26.6272 69.0162 26.9134 68.8117 27.2896C68.6073 27.6658 68.5051 28.1074 68.5051 28.6144C68.5051 29.1296 68.6073 29.5794 68.8117 29.9637C69.0162 30.3399 69.2901 30.6302 69.6336 30.8347C69.9771 31.0309 70.3573 31.1291 70.7744 31.1291C71.1915 31.1291 71.5717 31.0309 71.9152 30.8347C72.2668 30.6302 72.5449 30.3399 72.7493 29.9637C72.9538 29.5794 73.056 29.1337 73.056 28.6267Z" fill="#3E75E2"/>
<path d="M63.2098 25.1552C64.0275 25.1552 64.6899 25.4046 65.197 25.9035C65.704 26.3941 65.9575 27.1056 65.9575 28.0379V32H64.8535V28.1973C64.8535 27.5268 64.6859 27.0156 64.3506 26.664C64.0153 26.3042 63.5573 26.1243 62.9767 26.1243C62.3879 26.1243 61.9177 26.3083 61.566 26.6763C61.2226 27.0443 61.0508 27.5799 61.0508 28.2832V32H59.9346V25.2779H61.0508V26.2347C61.2716 25.8912 61.5701 25.6254 61.9463 25.4373C62.3307 25.2492 62.7518 25.1552 63.2098 25.1552Z" fill="#3E75E2"/>
<path d="M57.493 24.1861C57.2803 24.1861 57.1004 24.1125 56.9532 23.9653C56.806 23.8181 56.7324 23.6382 56.7324 23.4256C56.7324 23.213 56.806 23.0331 56.9532 22.8859C57.1004 22.7387 57.2803 22.6651 57.493 22.6651C57.6974 22.6651 57.8691 22.7387 58.0082 22.8859C58.1554 23.0331 58.229 23.213 58.229 23.4256C58.229 23.6382 58.1554 23.8181 58.0082 23.9653C57.8691 24.1125 57.6974 24.1861 57.493 24.1861ZM58.0327 25.2779V32H56.9164V25.2779H58.0327Z" fill="#3E75E2"/>
<path d="M54.3571 32L51.7198 29.0315V32H50.6035V22.9227H51.7198V28.2587L54.308 25.2779H55.8659L52.7011 28.6267L55.8782 32H54.3571Z" fill="#3E75E2"/>
<path d="M41.8965 28.6144C41.8965 27.9275 42.0355 27.3264 42.3136 26.8112C42.5916 26.2878 42.9719 25.883 43.4544 25.5968C43.945 25.3106 44.4888 25.1675 45.0858 25.1675C45.6746 25.1675 46.1857 25.2942 46.6192 25.5477C47.0526 25.8012 47.3756 26.1202 47.5882 26.5045V25.2779H48.7168V32H47.5882V30.7488C47.3674 31.1413 47.0362 31.4684 46.5946 31.7301C46.1612 31.9836 45.6542 32.1104 45.0736 32.1104C44.4766 32.1104 43.9368 31.9632 43.4544 31.6688C42.9719 31.3744 42.5916 30.9614 42.3136 30.4299C42.0355 29.8983 41.8965 29.2932 41.8965 28.6144ZM47.5882 28.6267C47.5882 28.1196 47.486 27.678 47.2816 27.3019C47.0771 26.9257 46.7991 26.6395 46.4474 26.4432C46.104 26.2388 45.7237 26.1365 45.3066 26.1365C44.8896 26.1365 44.5093 26.2347 44.1658 26.4309C43.8224 26.6272 43.5484 26.9134 43.344 27.2896C43.1395 27.6658 43.0373 28.1074 43.0373 28.6144C43.0373 29.1296 43.1395 29.5794 43.344 29.9637C43.5484 30.3399 43.8224 30.6302 44.1658 30.8347C44.5093 31.0309 44.8896 31.1291 45.3066 31.1291C45.7237 31.1291 46.104 31.0309 46.4474 30.8347C46.7991 30.6302 47.0771 30.3399 47.2816 29.9637C47.486 29.5794 47.5882 29.1337 47.5882 28.6267Z" fill="#3E75E2"/>
<path d="M39.2069 26.1979V30.16C39.2069 30.4871 39.2764 30.7202 39.4155 30.8592C39.5545 30.99 39.7957 31.0555 40.1392 31.0555H40.9611V32H39.9552C39.3337 32 38.8675 31.8569 38.5568 31.5707C38.246 31.2844 38.0907 30.8142 38.0907 30.16V26.1979H37.2197V25.2779H38.0907V23.5851H39.2069V25.2779H40.9611V26.1979H39.2069Z" fill="#3E75E2"/>
<path d="M33.3567 32.0859C32.7924 32.0859 32.2854 31.9877 31.8356 31.7915C31.394 31.587 31.0464 31.309 30.7929 30.9573C30.5394 30.5975 30.4086 30.1845 30.4004 29.7184H31.5903C31.6311 30.1191 31.7947 30.4585 32.0809 30.7365C32.3753 31.0064 32.8006 31.1413 33.3567 31.1413C33.8882 31.1413 34.3053 31.0105 34.6079 30.7488C34.9186 30.4789 35.074 30.1355 35.074 29.7184C35.074 29.3913 34.984 29.1255 34.8041 28.9211C34.6242 28.7166 34.3993 28.5612 34.1295 28.4549C33.8596 28.3486 33.4957 28.2341 33.0377 28.1115C32.4735 27.9643 32.0196 27.8171 31.6761 27.6699C31.3408 27.5227 31.0505 27.2937 30.8052 26.9829C30.568 26.664 30.4495 26.2388 30.4495 25.7072C30.4495 25.2411 30.568 24.8281 30.8052 24.4683C31.0423 24.1084 31.3735 23.8304 31.7988 23.6341C32.2322 23.4379 32.727 23.3397 33.2831 23.3397C34.0845 23.3397 34.7387 23.5401 35.2457 23.9408C35.7609 24.3415 36.0512 24.8731 36.1167 25.5355H34.89C34.8491 25.2084 34.6774 24.9221 34.3748 24.6768C34.0722 24.4233 33.6715 24.2965 33.1727 24.2965C32.7065 24.2965 32.3263 24.4192 32.0319 24.6645C31.7375 24.9017 31.5903 25.237 31.5903 25.6704C31.5903 25.9812 31.6761 26.2347 31.8479 26.4309C32.0278 26.6272 32.2445 26.7785 32.498 26.8848C32.7597 26.9829 33.1236 27.0974 33.5897 27.2283C34.154 27.3836 34.6079 27.539 34.9513 27.6944C35.2948 27.8416 35.5892 28.0747 35.8345 28.3936C36.0799 28.7044 36.2025 29.1296 36.2025 29.6693C36.2025 30.0864 36.0921 30.4789 35.8713 30.8469C35.6505 31.2149 35.3234 31.5134 34.89 31.7424C34.4566 31.9714 33.9455 32.0859 33.3567 32.0859Z" fill="#3E75E2"/>
</g>
<defs>
<clipPath id="clip0_28864_8916">
<rect width="43.784" height="12.6469" fill="white" transform="translate(30.4004 22.6651)"/>
</clipPath>
</defs>
</svg>
