<svg width="44" height="28" viewBox="0 0 44 28" fill="none" xmlns="http://www.w3.org/2000/svg">
<mask id="mask0_28685_5409" style="mask-type:luminance" maskUnits="userSpaceOnUse" x="0" y="0" width="44" height="28">
<rect width="44" height="28" rx="14" fill="white"/>
</mask>
<g mask="url(#mask0_28685_5409)">
<rect width="44" height="28" rx="14" fill="url(#paint0_linear_28685_5409)"/>
<path opacity="0.8" d="M26.319 6.10033C26.4592 5.85555 26.7471 5.73632 27.0193 5.81023L29.8388 6.57558C29.9452 6.60445 30.0573 6.60445 30.1637 6.57558L32.9832 5.81023C33.2554 5.73632 33.5433 5.85555 33.6835 6.10033L35.136 8.6352C35.1908 8.73082 35.2701 8.81011 35.3657 8.8649L37.9006 10.3174C38.1454 10.4577 38.2646 10.7455 38.1907 11.0178L37.4253 13.8372C37.3965 13.9436 37.3965 14.0557 37.4253 14.1621L38.1907 16.9816C38.2646 17.2539 38.1454 17.5417 37.9006 17.6819L35.3657 19.1344C35.2701 19.1892 35.1908 19.2685 35.136 19.3641L33.6835 21.899C33.5433 22.1438 33.2554 22.263 32.9832 22.1891L30.1637 21.4238C30.0573 21.3949 29.9452 21.3949 29.8388 21.4238L27.0193 22.1891C26.7471 22.263 26.4592 22.1438 26.319 21.899L24.8665 19.3641C24.8117 19.2685 24.7324 19.1892 24.6368 19.1344L22.1019 17.682C21.8571 17.5417 21.7379 17.2539 21.8118 16.9816L22.5772 14.1621C22.606 14.0557 22.606 13.9436 22.5772 13.8372L21.8118 11.0178C21.7379 10.7455 21.8571 10.4577 22.1019 10.3174L24.6368 8.8649C24.7324 8.81011 24.8117 8.73082 24.8665 8.6352L26.319 6.10033Z" fill="#FDFEFE"/>
<path opacity="0.8" d="M20.9801 18.1574C20.8342 17.939 20.7327 17.6941 20.6815 17.4365L20.0755 14.39C20.0243 14.1324 20.0243 13.8672 20.0755 13.6096L20.6815 10.5631C20.7327 10.3055 20.8342 10.0606 20.9801 9.84219L22.7058 7.25951C22.8517 7.04113 23.0392 6.85363 23.2576 6.70771L25.8403 4.98203C26.0587 4.83611 26.3036 4.73463 26.5612 4.68339L29.6077 4.07741C29.8653 4.02617 30.1305 4.02617 30.3881 4.07741L33.4346 4.68339C33.6921 4.73463 33.9371 4.83611 34.1555 4.98202L36.7382 6.70771C36.9566 6.85363 37.1441 7.04113 37.29 7.25951L39.0157 9.84219C39.1616 10.0606 39.2631 10.3055 39.3143 10.5631L39.9203 13.6096C39.9715 13.8672 39.9715 14.1324 39.9203 14.39L39.3143 17.4365C39.2631 17.6941 39.1616 17.939 39.0157 18.1574L37.29 20.7401C37.1441 20.9585 36.9566 21.146 36.7382 21.2919L34.1555 23.0176C33.9371 23.1635 33.6921 23.265 33.4346 23.3162L30.3881 23.9222C30.1305 23.9734 29.8653 23.9734 29.6077 23.9222L26.5612 23.3162C26.3036 23.265 26.0587 23.1635 25.8403 23.0176L23.2576 21.2919C23.0392 21.146 22.8517 20.9585 22.7058 20.7401L20.9801 18.1574Z" fill="#FDFEFE"/>
<path fill-rule="evenodd" clip-rule="evenodd" d="M41 13.621C41 13.2786 41.2776 13.001 41.62 13.001H42.39C42.7324 13.001 43.01 13.2786 43.01 13.621V14.381C43.01 14.7234 42.7324 15.001 42.39 15.001H41.62C41.2776 15.001 41 14.7234 41 14.381V13.621Z" fill="#FDFEFE" fill-opacity="0.4"/>
<path d="M41.6201 13.2012H42.3896C42.6216 13.2012 42.8096 13.3891 42.8096 13.6211V14.3809C42.8096 14.6128 42.6216 14.8008 42.3896 14.8008H41.6201C41.3882 14.8008 41.2002 14.6128 41.2002 14.3809V13.6211C41.2002 13.3891 41.3882 13.2012 41.6201 13.2012Z" stroke="#1BA5F8" stroke-opacity="0.2" stroke-width="0.4" stroke-linecap="square"/>
<path fill-rule="evenodd" clip-rule="evenodd" d="M19 13.621C19 13.2786 18.7224 13.001 18.38 13.001H16.62C16.2776 13.001 16 13.2786 16 13.621V14.381C16 14.7234 16.2776 15.001 16.62 15.001H18.38C18.7224 15.001 19 14.7234 19 14.381V13.621Z" fill="#FDFEFE" fill-opacity="0.4"/>
<path d="M18.3799 13.2012H16.6201C16.3882 13.2012 16.2002 13.3891 16.2002 13.6211V14.3809C16.2002 14.6128 16.3882 14.8008 16.6201 14.8008H18.3799C18.6118 14.8008 18.7998 14.6128 18.7998 14.3809V13.6211C18.7998 13.3891 18.6118 13.2012 18.3799 13.2012Z" stroke="#1BA5F8" stroke-opacity="0.2" stroke-width="0.4" stroke-linecap="round"/>
<path fill-rule="evenodd" clip-rule="evenodd" d="M29.62 3C29.2776 3 29 2.72242 29 2.38V1.61C29 1.26758 29.2776 0.99 29.62 0.99H30.38C30.7224 0.99 31 1.26758 31 1.61V2.38C31 2.72242 30.7224 3 30.38 3H29.62Z" fill="#FDFEFE" fill-opacity="0.4"/>
<path d="M29.2002 2.37988V1.61035C29.2002 1.37839 29.3882 1.19043 29.6201 1.19043H30.3799C30.6118 1.19043 30.7998 1.37839 30.7998 1.61035V2.37988C30.7998 2.61184 30.6118 2.7998 30.3799 2.7998H29.6201C29.3882 2.7998 29.2002 2.61184 29.2002 2.37988Z" stroke="#1BA5F8" stroke-opacity="0.2" stroke-width="0.4" stroke-linecap="square"/>
<path fill-rule="evenodd" clip-rule="evenodd" d="M30.38 25C30.7224 25 31 25.2776 31 25.62V26.39C31 26.7324 30.7224 27.01 30.38 27.01H29.62C29.2776 27.01 29 26.7324 29 26.39V25.62C29 25.2776 29.2776 25 29.62 25H30.38Z" fill="#FDFEFE" fill-opacity="0.4"/>
<path d="M30.7998 25.6201V26.3896C30.7998 26.6216 30.6118 26.8096 30.3799 26.8096H29.6201C29.3882 26.8096 29.2002 26.6216 29.2002 26.3896V25.6201C29.2002 25.3882 29.3882 25.2002 29.6201 25.2002H30.3799C30.6118 25.2002 30.7998 25.3882 30.7998 25.6201Z" stroke="#1BA5F8" stroke-opacity="0.2" stroke-width="0.4" stroke-linecap="square"/>
<path fill-rule="evenodd" clip-rule="evenodd" d="M21.954 6.4903C21.7119 6.73243 21.3193 6.73243 21.0772 6.4903L19.8327 5.2458C19.5906 5.00367 19.5906 4.61111 19.8327 4.36898L20.3701 3.83158C20.6122 3.58946 21.0048 3.58946 21.2469 3.83158L22.4914 5.07609C22.7336 5.31822 22.7336 5.71078 22.4914 5.9529L21.954 6.4903Z" fill="#FDFEFE" fill-opacity="0.4"/>
<path d="M21.2187 6.34866L19.9744 5.10432C19.8103 4.9403 19.8103 4.67448 19.9744 4.51046L20.5116 3.97323C20.6756 3.80921 20.9414 3.80921 21.1054 3.97323L22.3498 5.21757C22.5138 5.38159 22.5138 5.64741 22.3498 5.81143L21.8126 6.34866C21.6485 6.51268 21.3827 6.51268 21.2187 6.34866Z" stroke="#1BA5F8" stroke-opacity="0.2" stroke-width="0.4" stroke-linecap="round"/>
<path fill-rule="evenodd" clip-rule="evenodd" d="M38.046 21.5097C38.2881 21.2676 38.6807 21.2676 38.9228 21.5097L39.4673 22.0542C39.7094 22.2963 39.7094 22.6889 39.4673 22.931L38.9299 23.4684C38.6877 23.7105 38.2952 23.7105 38.053 23.4684L37.5086 22.9239C37.2664 22.6818 37.2664 22.2892 37.5086 22.0471L38.046 21.5097Z" fill="#FDFEFE" fill-opacity="0.4"/>
<path d="M38.7813 21.6513L39.3254 22.1955C39.4895 22.3595 39.4895 22.6253 39.3254 22.7893L38.7882 23.3266C38.6242 23.4906 38.3584 23.4906 38.1944 23.3266L37.6502 22.7824C37.4862 22.6184 37.4862 22.3526 37.6502 22.1886L38.1874 21.6513C38.3515 21.4873 38.6173 21.4873 38.7813 21.6513Z" stroke="#1BA5F8" stroke-opacity="0.2" stroke-width="0.4" stroke-linecap="square"/>
<path fill-rule="evenodd" clip-rule="evenodd" d="M37.5087 5.95403C37.2666 5.71191 37.2666 5.31934 37.5087 5.07722L38.0532 4.53275C38.2953 4.29062 38.6879 4.29062 38.93 4.53275L39.4674 5.07015C39.7095 5.31227 39.7095 5.70484 39.4674 5.94696L38.9229 6.49143C38.6808 6.73356 38.2882 6.73356 38.0461 6.49143L37.5087 5.95403Z" fill="#FDFEFE" fill-opacity="0.4"/>
<path d="M37.6504 5.2187L38.1945 4.67455C38.3585 4.51053 38.6243 4.51053 38.7884 4.67455L39.3256 5.21179C39.4896 5.37581 39.4896 5.64163 39.3256 5.80565L38.7815 6.34979C38.6174 6.51381 38.3516 6.51381 38.1876 6.34979L37.6504 5.81255C37.4863 5.64853 37.4863 5.38272 37.6504 5.2187Z" stroke="#1BA5F8" stroke-opacity="0.2" stroke-width="0.4" stroke-linecap="square"/>
<path fill-rule="evenodd" clip-rule="evenodd" d="M22.4913 22.0469C22.7334 22.2891 22.7334 22.6816 22.4913 22.9238L21.2468 24.1683C21.0046 24.4104 20.6121 24.4104 20.37 24.1683L19.8326 23.6309C19.5904 23.3887 19.5904 22.9962 19.8326 22.7541L21.0771 21.5095C21.3192 21.2674 21.7118 21.2674 21.9539 21.5095L22.4913 22.0469Z" fill="#FDFEFE" fill-opacity="0.4"/>
<path d="M22.3496 22.7823L21.1053 24.0266C20.9413 24.1906 20.6755 24.1906 20.5114 24.0266L19.9742 23.4894C19.8102 23.3254 19.8102 23.0595 19.9742 22.8955L21.2185 21.6512C21.3826 21.4872 21.6484 21.4872 21.8124 21.6512L22.3496 22.1884C22.5137 22.3524 22.5137 22.6183 22.3496 22.7823Z" stroke="#1BA5F8" stroke-opacity="0.2" stroke-width="0.4" stroke-linecap="round"/>
<path opacity="0.2" d="M11.7139 3C12.9121 3 13.9432 3.7041 14.4238 4.71973C15.5427 4.79108 16.4286 5.71963 16.4287 6.85645C16.4287 8.03987 15.4686 8.99902 14.2852 8.99902H11.7529C11.74 8.99919 11.7268 9 11.7139 9C11.7008 9 11.6878 8.99919 11.6748 8.99902H8.7334C8.72701 8.99909 8.72027 9 8.71387 9C7.76734 8.99981 7.00008 8.23268 7 7.28613C7 6.33951 7.76729 5.57148 8.71387 5.57129C8.72419 5.57129 8.73484 5.57208 8.74512 5.57227C8.95269 4.11815 10.2024 3.00012 11.7139 3Z" fill="#FDFEFE"/>
<path opacity="0.32" d="M10.9287 5C11.9275 5.00002 12.7871 5.58688 13.1875 6.43359C14.1192 6.49372 14.8564 7.26693 14.8564 8.21387C14.8564 9.1382 14.1541 9.89858 13.2539 9.99023L13.0713 9.99902H10.9473C10.9411 9.99907 10.9349 10 10.9287 10C10.9225 10 10.9163 9.99907 10.9102 9.99902H8.44727C8.44109 9.9991 8.43491 10 8.42871 10C7.63979 10 7 9.36021 7 8.57129C7.00007 7.78242 7.63983 7.14258 8.42871 7.14258C8.43785 7.14258 8.44696 7.14338 8.45605 7.14355C8.6291 5.93183 9.66915 5 10.9287 5Z" fill="#FDFEFE"/>
<path opacity="0.2" d="M4.36621 13.2998C2.36839 13.2998 0.64543 14.4723 -0.155273 16.166C-2.01776 16.2873 -3.49119 17.8354 -3.49121 19.7285C-3.49121 21.6392 -1.99044 23.1992 -0.103516 23.2949L0.0800781 23.2998H9.36523L9.6582 23.2852C11.0985 23.1386 12.2225 21.9223 12.2227 20.4434C12.2227 18.8655 10.9431 17.5859 9.36523 17.5859C9.34826 17.5859 9.33135 17.5876 9.31445 17.5879C8.96893 15.1639 6.8857 13.3 4.36621 13.2998Z" fill="#FDFEFE"/>
<path opacity="0.32" d="M3.9375 16.2998C2.33846 16.2998 0.959449 17.2386 0.319336 18.5947C-1.16991 18.6924 -2.34745 19.9285 -2.34766 21.4424C-2.34766 22.9216 -1.22383 24.1388 0.216797 24.2852L0.508789 24.2998H7.9375L8.1709 24.2881C9.32321 24.171 10.2224 23.1978 10.2227 22.0146C10.2227 20.7525 9.19959 19.7287 7.9375 19.7285C7.92393 19.7285 7.91 19.7302 7.89648 19.7305C7.62021 17.7911 5.9532 16.2999 3.9375 16.2998Z" fill="#FDFEFE"/>
</g>
<defs>
<linearGradient id="paint0_linear_28685_5409" x1="0" y1="14" x2="44" y2="14" gradientUnits="userSpaceOnUse">
<stop stop-color="#49B6F9"/>
<stop offset="1" stop-color="#76C8FB"/>
</linearGradient>
</defs>
</svg>
