<svg width="44" height="28" viewBox="0 0 44 28" fill="none" xmlns="http://www.w3.org/2000/svg">
<rect width="44" height="28" rx="14" transform="matrix(-1 0 0 1 44 0)" fill="url(#paint0_linear_28685_5716)"/>
<path d="M17.1088 17.6485C13.5408 16.5705 11.5222 12.8042 12.6002 9.23619C13.0316 7.80834 13.8935 6.62862 15.001 5.7962C15.2993 5.57193 15.2157 5.07595 14.8442 5.04058C13.0473 4.8695 11.1818 5.23584 9.49961 6.20707C5.19569 8.69194 3.72107 14.1953 6.20593 18.4992C8.6908 22.8032 14.1942 24.2778 18.4981 21.7929C20.0882 20.8749 21.2921 19.5449 22.0528 18.0155C22.219 17.6814 21.8422 17.3485 21.4942 17.4833C20.1399 18.0079 18.6068 18.1011 17.1088 17.6485Z" fill="#FDFEFE"/>
<path d="M14.8916 4.54297C12.9948 4.36238 11.0251 4.74959 9.25 5.77441C4.70706 8.39728 3.14982 14.206 5.77246 18.749C8.3954 23.2921 14.205 24.8485 18.748 22.2256C20.4258 21.2569 21.6978 19.8529 22.501 18.2383C22.6985 17.8411 22.5583 17.4397 22.3057 17.2061C22.0923 17.0088 21.7747 16.9027 21.4521 16.9746L21.3135 17.0166L21.0762 17.1035C19.882 17.5116 18.5536 17.5629 17.2529 17.1699C13.9495 16.1716 12.081 12.6844 13.0791 9.38086C13.4787 8.05822 14.2765 6.96697 15.3018 6.19629C15.6174 5.959 15.7277 5.5793 15.665 5.25293C15.6 4.91499 15.3332 4.58504 14.8916 4.54297Z" stroke="#FDFEFE" stroke-opacity="0.36"/>
<path d="M33.3694 18.5302L32.0675 16.9255C31.9315 16.7579 31.6757 16.7579 31.5398 16.9255L30.2379 18.5302C30.1366 18.6549 30.1366 18.8336 30.2379 18.9583L31.5398 20.563C31.6757 20.7306 31.9315 20.7306 32.0675 20.563L33.3694 18.9583C33.4706 18.8336 33.4706 18.6549 33.3694 18.5302Z" fill="#FDFEFE" stroke="#FDFEFE" stroke-opacity="0.36" stroke-width="1.62"/>
<path d="M25.5169 9.4386L24.7358 8.47582C24.6542 8.37525 24.5008 8.37525 24.4192 8.47582L23.638 9.4386C23.5773 9.51347 23.5773 9.62064 23.638 9.69551L24.4192 10.6583C24.5008 10.7589 24.6542 10.7589 24.7358 10.6583L25.5169 9.69551C25.5777 9.62064 25.5777 9.51347 25.5169 9.4386Z" fill="#FDFEFE" stroke="#FDFEFE" stroke-opacity="0.36" stroke-width="1.62"/>
<path d="M36.5742 7.62293L36.1056 7.04526C36.0566 6.98491 35.9645 6.98491 35.9156 7.04526L35.4469 7.62293C35.4104 7.66785 35.4104 7.73215 35.4469 7.77707L35.9156 8.35474C35.9645 8.41508 36.0566 8.41508 36.1056 8.35474L36.5742 7.77707C36.6107 7.73215 36.6107 7.66785 36.5742 7.62293Z" fill="#FDFEFE" stroke="#FDFEFE" stroke-opacity="0.36" stroke-width="1.62"/>
<defs>
<linearGradient id="paint0_linear_28685_5716" x1="22" y1="-8" x2="22" y2="28" gradientUnits="userSpaceOnUse">
<stop stop-color="#045588"/>
<stop offset="1" stop-color="#067BC4"/>
</linearGradient>
</defs>
</svg>
