<svg width="672.202" height="232.203" viewBox="0 0 672.202 232.203" fill="none" xmlns="http://www.w3.org/2000/svg">
  <defs>
    <g id="ssv-icon">
      <path opacity="0.62" d="M9.73576 22.144L13.2677 17.7906C13.6367 17.3359 14.3306 17.3359 14.6995 17.7906L18.2315 22.144C18.5061 22.4825 18.5061 22.9671 18.2315 23.3056L14.6995 27.659C14.3306 28.1137 13.6367 28.1137 13.2677 27.659L9.73576 23.3056C9.46113 22.9671 9.46113 22.4825 9.73576 22.144Z" fill="#0b2a3c"/>
      <path d="M15.256 11.4984L18.7879 7.14508C19.1569 6.69035 19.8508 6.69035 20.2197 7.14508L23.7517 11.4984C24.0263 11.8369 24.0263 12.3215 23.7517 12.6601L20.2197 17.0134C19.8508 17.4681 19.1569 17.4681 18.7879 17.0134L15.256 12.6601C14.9813 12.3215 14.9813 11.8369 15.256 11.4984Z" fill="#0b2a3c"/>
      <path d="M4.21929 11.4984L7.75124 7.14508C8.12018 6.69035 8.81408 6.69035 9.18301 7.14508L12.715 11.4984C12.9896 11.8369 12.9896 12.3215 12.715 12.6601L9.18301 17.0134C8.81408 17.4681 8.12018 17.4681 7.75124 17.0134L4.21929 12.6601C3.94465 12.3215 3.94465 11.8369 4.21929 11.4984Z" fill="#0b2a3c"/>
      <path d="M9.73576 4.6944L13.2677 0.341052C13.6367 -0.113684 14.3306 -0.113684 14.6995 0.341052L18.2315 4.6944C18.5061 5.03291 18.5061 5.51751 18.2315 5.85602L14.6995 10.2094C14.3306 10.6641 13.6367 10.6641 13.2677 10.2094L9.73576 5.85602C9.46113 5.51751 9.46113 5.03291 9.73576 4.6944Z" fill="#0b2a3c"/>
    </g>
  </defs>
  <g>
    <use href="#ssv-icon" transform="translate(90.418 138.418) rotate(30) scale(4.728) translate(-14 -14)"/>
    <use href="#ssv-icon" transform="translate(293.958 107.958) rotate(13.439) scale(6.399) translate(-14 -14)"/>
    <use href="#ssv-icon" transform="translate(571.954 131.954) rotate(241.415) scale(5.278) translate(-14 -14)"/>
    <use href="#ssv-icon" transform="translate(201.789 152.919) rotate(323.467) scale(3.196) translate(-14 -14)"/>
    <use href="#ssv-icon" transform="translate(429.436 144.436) rotate(100.96) scale(3.196) translate(-14 -14)"/>
  </g>
</svg>
