<svg width="28" height="28" viewBox="0 0 28 28" fill="none" xmlns="http://www.w3.org/2000/svg">
<path opacity="0.62" d="M9.73583 22.144L13.2678 17.7906C13.6367 17.3359 14.3306 17.3359 14.6996 17.7906L18.2315 22.144C18.5062 22.4825 18.5062 22.9671 18.2315 23.3056L14.6996 27.659C14.3306 28.1137 13.6367 28.1137 13.2678 27.659L9.73583 23.3056C9.46119 22.9671 9.46119 22.4825 9.73583 22.144Z" fill="#1BA5F8"/>
<path d="M15.256 11.4984L18.7879 7.1451C19.1569 6.69036 19.8508 6.69036 20.2197 7.1451L23.7517 11.4984C24.0263 11.837 24.0263 12.3216 23.7517 12.6601L20.2197 17.0134C19.8508 17.4681 19.1569 17.4681 18.7879 17.0134L15.256 12.6601C14.9813 12.3216 14.9813 11.837 15.256 11.4984Z" fill="#1BA5F8"/>
<path d="M4.21932 11.4984L7.75127 7.1451C8.12021 6.69036 8.81411 6.69036 9.18304 7.1451L12.715 11.4984C12.9896 11.837 12.9896 12.3216 12.715 12.6601L9.18304 17.0134C8.81411 17.4681 8.12021 17.4681 7.75127 17.0134L4.21932 12.6601C3.94468 12.3216 3.94468 11.837 4.21932 11.4984Z" fill="#1BA5F8"/>
<path d="M9.73583 4.6944L13.2678 0.341052C13.6367 -0.113684 14.3306 -0.113684 14.6996 0.341052L18.2315 4.6944C18.5062 5.03291 18.5062 5.51751 18.2315 5.85602L14.6996 10.2094C14.3306 10.6641 13.6367 10.6641 13.2678 10.2094L9.73583 5.85602C9.46119 5.51751 9.46119 5.03291 9.73583 4.6944Z" fill="#1BA5F8"/>
</svg>
