<svg width="16" height="16" viewBox="0 0 16 16" fill="none" xmlns="http://www.w3.org/2000/svg">
<path opacity="0.62" d="M5.56329 12.6537L7.58155 10.1661C7.79237 9.90621 8.18888 9.90621 8.3997 10.1661L10.418 12.6537C10.5749 12.8471 10.5749 13.124 10.418 13.3175L8.3997 15.8051C8.18888 16.0649 7.79237 16.0649 7.58155 15.8051L5.56329 13.3175C5.40635 13.124 5.40635 12.8471 5.56329 12.6537Z" fill="#FDFEFE"/>
<path d="M8.71771 6.57054L10.736 4.08292C10.9468 3.82307 11.3433 3.82307 11.5541 4.08292L13.5724 6.57054C13.7293 6.76397 13.7293 7.04089 13.5724 7.23433L11.5541 9.72195C11.3433 9.9818 10.9468 9.9818 10.736 9.72195L8.71771 7.23433C8.56078 7.04089 8.56078 6.76397 8.71771 6.57054Z" fill="#FDFEFE"/>
<path d="M2.41103 6.57054L4.42929 4.08292C4.64011 3.82307 5.03662 3.82307 5.24745 4.08292L7.26571 6.57054C7.42264 6.76397 7.42264 7.04089 7.26571 7.23433L5.24745 9.72195C5.03662 9.9818 4.64011 9.9818 4.42929 9.72195L2.41103 7.23433C2.25409 7.04089 2.25409 6.76397 2.41103 6.57054Z" fill="#FDFEFE"/>
<path d="M5.56329 2.68251L7.58155 0.194887C7.79237 -0.0649623 8.18888 -0.0649622 8.3997 0.194887L10.418 2.68251C10.5749 2.87594 10.5749 3.15286 10.418 3.3463L8.3997 5.83392C8.18888 6.09377 7.79237 6.09377 7.58155 5.83392L5.56329 3.3463C5.40635 3.15286 5.40635 2.87594 5.56329 2.68251Z" fill="#FDFEFE"/>
</svg>
