<svg preserveAspectRatio="none" width="100%" height="100%" overflow="visible" style="display: block;" viewBox="0 0 62.3808 71.7657" fill="none" xmlns="http://www.w3.org/2000/svg">
<g id="Frame 10008">
<path id="bottom-diamond" opacity="0.4" d="M55.4577 39.201L35.2802 64.071C33.1725 66.6688 29.2083 66.6688 27.1007 64.071L6.92309 39.201C5.35412 37.2671 5.35412 34.4986 6.92309 32.5648L27.1007 7.69474C29.2083 5.0969 33.1725 5.0969 35.2802 7.69474L55.4577 32.5648C57.0267 34.4986 57.0267 37.2671 55.4577 39.201Z" fill="url(#paint0_linear_0_470)"/>
<g id="bottom-diamond_2" filter="url(#filter0_d_0_470)">
<path d="M55.4577 39.201L35.2802 64.071C33.1725 66.6688 29.2083 66.6688 27.1007 64.071L6.92309 39.201C5.35412 37.2671 5.35412 34.4986 6.92309 32.5648L27.1007 7.69474C29.2083 5.0969 33.1725 5.0969 35.2802 7.69474L55.4577 32.5648C57.0267 34.4986 57.0267 37.2671 55.4577 39.201Z" stroke="url(#paint1_linear_0_470)" stroke-width="0.86" shape-rendering="crispEdges"/>
</g>
<path id="bottom-diamond_3" opacity="0.2" d="M53.4868 38.7949L34.4592 62.5561C32.4716 65.0381 28.7334 65.0381 26.7458 62.5561L7.71817 38.7949C6.23861 36.9473 6.23861 34.3022 7.71817 32.4546L26.7458 8.69348C28.7334 6.21147 32.4716 6.21147 34.4592 8.69348L53.4868 32.4546C54.9664 34.3022 54.9664 36.9473 53.4868 38.7949Z" fill="url(#paint2_linear_0_470)"/>
</g>
<defs>
<filter id="filter0_d_0_470" x="-2.98023e-08" y="0" width="62.3808" height="71.7657" filterUnits="userSpaceOnUse" color-interpolation-filters="sRGB">
<feFlood flood-opacity="0" result="BackgroundImageFix"/>
<feColorMatrix in="SourceAlpha" type="matrix" values="0 0 0 0 0 0 0 0 0 0 0 0 0 0 0 0 0 0 127 0" result="hardAlpha"/>
<feOffset/>
<feGaussianBlur stdDeviation="2.65818"/>
<feComposite in2="hardAlpha" operator="out"/>
<feColorMatrix type="matrix" values="0 0 0 0 0.105882 0 0 0 0 0.647059 0 0 0 0 0.972549 0 0 0 0.25 0"/>
<feBlend mode="normal" in2="BackgroundImageFix" result="effect1_dropShadow_0_470"/>
<feBlend mode="normal" in="SourceGraphic" in2="effect1_dropShadow_0_470" result="shape"/>
</filter>
<linearGradient id="paint0_linear_0_470" x1="31.1904" y1="5.74636" x2="31.1904" y2="66.0194" gradientUnits="userSpaceOnUse">
<stop stop-color="#3E75E2"/>
<stop offset="1" stop-color="#3E75E2" stop-opacity="0"/>
</linearGradient>
<linearGradient id="paint1_linear_0_470" x1="31.1904" y1="5.74636" x2="31.1904" y2="66.0194" gradientUnits="userSpaceOnUse">
<stop stop-color="#3E75E2"/>
<stop offset="1" stop-color="#3E75E2" stop-opacity="0"/>
</linearGradient>
<linearGradient id="paint2_linear_0_470" x1="6.6085" y1="35.6248" x2="54.5965" y2="35.6248" gradientUnits="userSpaceOnUse">
<stop stop-color="#3E75E2"/>
<stop offset="0.455" stop-color="#3E75E2" stop-opacity="0"/>
</linearGradient>
</defs>
</svg>
