<svg preserveAspectRatio="none" width="100%" height="100%" overflow="visible" style="display: block;" viewBox="0 0 119.228 139.097" fill="none" xmlns="http://www.w3.org/2000/svg">
<g id="Frame 10006">
<path id="bottom-diamond" opacity="0.2" d="M106.818 76.8098L66.5344 127.115C62.3266 132.369 54.4124 132.369 50.2045 127.115L9.92088 76.8098C6.7885 72.8982 6.7885 67.2983 9.92088 63.3867L50.2045 13.0818C54.4124 7.82714 62.3266 7.82714 66.5344 13.0818L106.818 63.3867C109.95 67.2983 109.95 72.8982 106.818 76.8098Z" fill="url(#paint0_linear_0_530)"/>
<path id="bottom-diamond_2" opacity="0.4" d="M110.991 76.5733L68.2725 129.226C63.8104 134.726 55.4179 134.726 50.9557 129.226L8.23763 76.5733C4.91594 72.4791 4.91594 66.618 8.23763 62.5238L50.9557 9.87129C55.4179 4.37139 63.8104 4.37139 68.2725 9.87129L110.991 62.5238C114.312 66.618 114.312 72.4791 110.991 76.5733Z" fill="url(#paint1_linear_0_530)"/>
<g id="bottom-diamond_3" opacity="0.62" filter="url(#filter0_d_0_530)">
<path d="M110.991 76.5733L68.2725 129.226C63.8104 134.726 55.4179 134.726 50.9557 129.226L8.23763 76.5733C4.91594 72.4791 4.91594 66.618 8.23763 62.5238L50.9557 9.87129C55.4179 4.37139 63.8104 4.37139 68.2725 9.87129L110.991 62.5238C114.312 66.618 114.312 72.4791 110.991 76.5733Z" stroke="url(#paint2_linear_0_530)" stroke-width="0.86" shape-rendering="crispEdges"/>
</g>
</g>
<defs>
<filter id="filter0_d_0_530" x="1.49012e-07" y="-1.19209e-07" width="119.228" height="139.097" filterUnits="userSpaceOnUse" color-interpolation-filters="sRGB">
<feFlood flood-opacity="0" result="BackgroundImageFix"/>
<feColorMatrix in="SourceAlpha" type="matrix" values="0 0 0 0 0 0 0 0 0 0 0 0 0 0 0 0 0 0 127 0" result="hardAlpha"/>
<feOffset/>
<feGaussianBlur stdDeviation="2.65818"/>
<feComposite in2="hardAlpha" operator="out"/>
<feColorMatrix type="matrix" values="0 0 0 0 0.105882 0 0 0 0 0.647059 0 0 0 0 0.972549 0 0 0 0.25 0"/>
<feBlend mode="normal" in2="BackgroundImageFix" result="effect1_dropShadow_0_530"/>
<feBlend mode="normal" in="SourceGraphic" in2="effect1_dropShadow_0_530" result="shape"/>
</filter>
<linearGradient id="paint0_linear_0_530" x1="7.5716" y1="70.0982" x2="109.167" y2="70.0982" gradientUnits="userSpaceOnUse">
<stop stop-color="#3E75E2"/>
<stop offset="0.455" stop-color="#3E75E2" stop-opacity="0"/>
</linearGradient>
<linearGradient id="paint1_linear_0_530" x1="59.6141" y1="5.74636" x2="59.6141" y2="133.351" gradientUnits="userSpaceOnUse">
<stop stop-color="#3E75E2"/>
<stop offset="1" stop-color="#3E75E2" stop-opacity="0"/>
</linearGradient>
<linearGradient id="paint2_linear_0_530" x1="59.6141" y1="5.74636" x2="59.6141" y2="133.351" gradientUnits="userSpaceOnUse">
<stop stop-color="#3E75E2"/>
<stop offset="1" stop-color="#3E75E2" stop-opacity="0"/>
</linearGradient>
</defs>
</svg>
