<svg preserveAspectRatio="none" width="100%" height="100%" overflow="visible" style="display: block;" viewBox="0 0 62.3808 71.7657" fill="none" xmlns="http://www.w3.org/2000/svg">
<g id="Frame 10007">
<g id="bottom-diamond" filter="url(#filter0_d_0_541)">
<path d="M55.4577 39.201L35.2802 64.071C33.1725 66.6688 29.2083 66.6688 27.1007 64.071L6.92309 39.201C5.35412 37.2671 5.35412 34.4986 6.92309 32.5648L27.1007 7.69474C29.2083 5.0969 33.1725 5.0969 35.2802 7.69474L55.4577 32.5648C57.0267 34.4986 57.0267 37.2671 55.4577 39.201Z" stroke="url(#paint0_linear_0_541)" stroke-width="0.86" shape-rendering="crispEdges"/>
</g>
<path id="bottom-diamond_2" opacity="0.4" d="M55.4577 39.201L35.2802 64.071C33.1725 66.6688 29.2083 66.6688 27.1007 64.071L6.92309 39.201C5.35412 37.2671 5.35412 34.4986 6.92309 32.5648L27.1007 7.69474C29.2083 5.0969 33.1725 5.0969 35.2802 7.69474L55.4577 32.5648C57.0267 34.4986 57.0267 37.2671 55.4577 39.201Z" fill="url(#paint1_linear_0_541)"/>
<path id="bottom-diamond_3" opacity="0.2" d="M54.7033 38.795L35.0414 62.5561C32.9876 65.0381 29.1248 65.0381 27.071 62.5561L7.40905 38.795C5.88017 36.9473 5.88017 34.3023 7.40905 32.4547L27.071 8.69351C29.1248 6.2115 32.9876 6.2115 35.0414 8.69351L54.7033 32.4547C56.2322 34.3023 56.2322 36.9473 54.7033 38.795Z" fill="url(#paint2_linear_0_541)"/>
</g>
<defs>
<filter id="filter0_d_0_541" x="-2.98023e-08" y="0" width="62.3808" height="71.7657" filterUnits="userSpaceOnUse" color-interpolation-filters="sRGB">
<feFlood flood-opacity="0" result="BackgroundImageFix"/>
<feColorMatrix in="SourceAlpha" type="matrix" values="0 0 0 0 0 0 0 0 0 0 0 0 0 0 0 0 0 0 127 0" result="hardAlpha"/>
<feOffset/>
<feGaussianBlur stdDeviation="2.65818"/>
<feComposite in2="hardAlpha" operator="out"/>
<feColorMatrix type="matrix" values="0 0 0 0 0.105882 0 0 0 0 0.647059 0 0 0 0 0.972549 0 0 0 0.25 0"/>
<feBlend mode="normal" in2="BackgroundImageFix" result="effect1_dropShadow_0_541"/>
<feBlend mode="normal" in="SourceGraphic" in2="effect1_dropShadow_0_541" result="shape"/>
</filter>
<linearGradient id="paint0_linear_0_541" x1="31.1904" y1="5.74636" x2="31.1904" y2="66.0194" gradientUnits="userSpaceOnUse">
<stop stop-color="#3E75E2"/>
<stop offset="1" stop-color="#3E75E2" stop-opacity="0"/>
</linearGradient>
<linearGradient id="paint1_linear_0_541" x1="31.1904" y1="5.74636" x2="31.1904" y2="66.0194" gradientUnits="userSpaceOnUse">
<stop stop-color="#3E75E2"/>
<stop offset="1" stop-color="#3E75E2" stop-opacity="0"/>
</linearGradient>
<linearGradient id="paint2_linear_0_541" x1="55.85" y1="35.6248" x2="6.26239" y2="35.6248" gradientUnits="userSpaceOnUse">
<stop stop-color="#3E75E2"/>
<stop offset="0.455" stop-color="#3E75E2" stop-opacity="0"/>
</linearGradient>
</defs>
</svg>
